%TF.GenerationSoftware,KiCad,Pcbnew,9.0.1*%
%TF.CreationDate,2026-03-19T22:20:21-04:00*%
%TF.ProjectId,HammerHacks II Badge PCB,48616d6d-6572-4486-9163-6b7320494920,rev?*%
%TF.SameCoordinates,Original*%
%TF.FileFunction,Copper,L2,Bot*%
%TF.FilePolarity,Positive*%
%FSLAX46Y46*%
G04 Gerber Fmt 4.6, Leading zero omitted, Abs format (unit mm)*
G04 Created by KiCad (PCBNEW 9.0.1) date 2026-03-19 22:20:21*
%MOMM*%
%LPD*%
G01*
G04 APERTURE LIST*
%TA.AperFunction,Conductor*%
%ADD10C,0.000000*%
%TD*%
%TA.AperFunction,NonConductor*%
%ADD11C,0.000000*%
%TD*%
%TA.AperFunction,WasherPad*%
%ADD12O,18.000000X9.000000*%
%TD*%
%TA.AperFunction,ComponentPad*%
%ADD13C,1.400000*%
%TD*%
%TA.AperFunction,ComponentPad*%
%ADD14O,1.400000X1.400000*%
%TD*%
%TA.AperFunction,ComponentPad*%
%ADD15R,1.800000X1.800000*%
%TD*%
%TA.AperFunction,ComponentPad*%
%ADD16C,1.800000*%
%TD*%
%TA.AperFunction,SMDPad,CuDef*%
%ADD17R,1.270000X5.080000*%
%TD*%
%TA.AperFunction,SMDPad,CuDef*%
%ADD18C,17.800000*%
%TD*%
%TA.AperFunction,Conductor*%
%ADD19C,0.200000*%
%TD*%
G04 APERTURE END LIST*
D10*
%TA.AperFunction,Conductor*%
%TO.N,Net-(BT1-+)*%
G36*
X144532894Y-103229477D02*
G01*
X145040895Y-103356477D01*
X145485394Y-103610477D01*
X145802892Y-103927977D01*
X145993395Y-104308977D01*
X146183894Y-105197976D01*
X146247392Y-107674477D01*
X146437894Y-109261977D01*
X146437894Y-110214477D01*
X146310893Y-110595475D01*
X145929894Y-111103476D01*
X145294892Y-111547975D01*
X144405893Y-111865476D01*
X142818393Y-112246477D01*
X141992892Y-112246477D01*
X141611893Y-112119477D01*
X141294393Y-111865476D01*
X141040392Y-111484477D01*
X141040392Y-110785977D01*
X141103893Y-110658976D01*
X141421394Y-110277977D01*
X141929395Y-109960476D01*
X142564393Y-109769977D01*
X143897892Y-109642975D01*
X144405893Y-109515977D01*
X144469393Y-109325477D01*
X144532894Y-108372977D01*
X143516893Y-108626977D01*
X142564393Y-108626977D01*
X142056393Y-108372977D01*
X141802393Y-107991977D01*
X141802393Y-107483977D01*
X141865893Y-107293477D01*
X142056393Y-107102976D01*
X142564393Y-106848977D01*
X143326394Y-106721977D01*
X144215393Y-106721977D01*
X144342392Y-106785477D01*
X144151893Y-106023476D01*
X143834395Y-105388477D01*
X142246893Y-105578977D01*
X141230895Y-105578977D01*
X141040392Y-105515477D01*
X140722894Y-105261477D01*
X140659393Y-104753477D01*
X140849893Y-104308977D01*
X141357893Y-103737477D01*
X141865893Y-103483477D01*
X142881895Y-103229477D01*
X143961393Y-103165977D01*
X144532894Y-103229477D01*
G37*
%TD.AperFunction*%
D11*
%TA.AperFunction,NonConductor*%
G36*
X161677892Y-111293978D02*
G01*
X161868391Y-111674977D01*
X161995391Y-113389477D01*
X162503392Y-113389477D01*
X162757392Y-113516475D01*
X162820891Y-113389477D01*
X162947891Y-112373476D01*
X163201892Y-112055976D01*
X163582892Y-111992478D01*
X163773391Y-112119477D01*
X163963893Y-112500474D01*
X164090891Y-113389477D01*
X164090891Y-114659473D01*
X163963893Y-115548477D01*
X163773391Y-116119974D01*
X163519391Y-116437475D01*
X163138393Y-116437475D01*
X162947891Y-116246976D01*
X162820891Y-115929475D01*
X162693891Y-114595977D01*
X162566891Y-114468974D01*
X161995391Y-114405473D01*
X161804892Y-115484975D01*
X161487391Y-115802477D01*
X161106393Y-115802477D01*
X160915891Y-115675475D01*
X160725392Y-115103973D01*
X160661891Y-114087976D01*
X160661891Y-112754474D01*
X160725392Y-111992478D01*
X160852392Y-111420977D01*
X161106393Y-111166977D01*
X161487391Y-111166977D01*
X161677892Y-111293978D01*
G37*
%TD.AperFunction*%
D10*
%TA.AperFunction,Conductor*%
G36*
X153168892Y-100689477D02*
G01*
X153422892Y-101006977D01*
X153740393Y-101641977D01*
X154121392Y-102975477D01*
X154438893Y-104689977D01*
X154565891Y-106086977D01*
X154565891Y-108182477D01*
X154502394Y-108690475D01*
X154375392Y-109071477D01*
X154121392Y-109388978D01*
X153740393Y-109579477D01*
X153232393Y-109515977D01*
X152914892Y-109198476D01*
X152724393Y-108626977D01*
X152470392Y-105134477D01*
X152279893Y-103673977D01*
X152216392Y-103673977D01*
X152025893Y-104245476D01*
X151581393Y-105134477D01*
X151073393Y-105451977D01*
X150565392Y-105451977D01*
X150120893Y-105261477D01*
X149676393Y-104816977D01*
X149041394Y-103927977D01*
X149104892Y-105007477D01*
X149295394Y-105959977D01*
X149866893Y-107928476D01*
X150120893Y-109198476D01*
X150120893Y-109833477D01*
X149930393Y-110404976D01*
X149676393Y-110722477D01*
X149231893Y-110976477D01*
X148660392Y-110976477D01*
X148152392Y-110785977D01*
X147644395Y-110341478D01*
X147136394Y-109325477D01*
X146882394Y-108372977D01*
X146691895Y-107293477D01*
X146564893Y-105959977D01*
X146564893Y-103610477D01*
X146628393Y-103102477D01*
X146882394Y-102149977D01*
X147199892Y-101641977D01*
X147580893Y-101387978D01*
X148215893Y-101387978D01*
X148723893Y-101641977D01*
X149549395Y-102276977D01*
X150628893Y-103356477D01*
X150946394Y-102086477D01*
X151263892Y-101197477D01*
X151644894Y-100689477D01*
X152025893Y-100435478D01*
X152724393Y-100435478D01*
X153168892Y-100689477D01*
G37*
%TD.AperFunction*%
D11*
%TA.AperFunction,NonConductor*%
G36*
X155772392Y-110404976D02*
G01*
X156153393Y-110595475D01*
X156597893Y-110976477D01*
X156978891Y-111738477D01*
X157105893Y-112373476D01*
X157042392Y-113198974D01*
X156915390Y-113579976D01*
X156534392Y-114214974D01*
X156153393Y-114532475D01*
X155645393Y-114722975D01*
X154946893Y-114722975D01*
X154756394Y-114659473D01*
X154375392Y-114405473D01*
X154121392Y-114024475D01*
X154121392Y-113516475D01*
X154311891Y-113325976D01*
X154819892Y-113325976D01*
X155073892Y-113516475D01*
X155518391Y-113516475D01*
X155645393Y-113452974D01*
X155899393Y-113071976D01*
X155899393Y-112119477D01*
X155708894Y-111738477D01*
X155327892Y-111547975D01*
X155010394Y-111611476D01*
X154692893Y-111801975D01*
X154375392Y-111865476D01*
X154057894Y-111611476D01*
X154057894Y-111039978D01*
X154121392Y-110912976D01*
X154438893Y-110595475D01*
X154819892Y-110404976D01*
X155454894Y-110341478D01*
X155772392Y-110404976D01*
G37*
%TD.AperFunction*%
%TA.AperFunction,NonConductor*%
G36*
X153422892Y-110468477D02*
G01*
X153676893Y-111166977D01*
X153867392Y-112373476D01*
X153867392Y-114214974D01*
X153740393Y-114532475D01*
X153486393Y-114786476D01*
X153105394Y-114849977D01*
X152851394Y-114722975D01*
X152660891Y-114405473D01*
X152597394Y-113706974D01*
X152216392Y-114468974D01*
X151835393Y-114976975D01*
X151517892Y-115167474D01*
X151136893Y-115103973D01*
X150946394Y-114849977D01*
X150946394Y-114278475D01*
X151009892Y-114087976D01*
X151390893Y-113452974D01*
X151771893Y-112754474D01*
X151073393Y-111992478D01*
X150628893Y-111420977D01*
X150565392Y-110912976D01*
X150819393Y-110722477D01*
X151200394Y-110785977D01*
X151898894Y-111230477D01*
X152533893Y-111801975D01*
X152660891Y-110785977D01*
X152851394Y-110404976D01*
X153232393Y-110341478D01*
X153422892Y-110468477D01*
G37*
%TD.AperFunction*%
D10*
%TA.AperFunction,Conductor*%
G36*
X149803391Y-111674977D02*
G01*
X150374893Y-112055976D01*
X150692394Y-112500474D01*
X150882893Y-113071976D01*
X150882893Y-113579976D01*
X150819393Y-113770476D01*
X150501895Y-114151473D01*
X149612892Y-114468974D01*
X149295394Y-114722975D01*
X149295394Y-115167474D01*
X149676393Y-115230975D01*
X150247894Y-114913474D01*
X150692394Y-114913474D01*
X150882893Y-115167474D01*
X150882893Y-115548477D01*
X150755891Y-115802477D01*
X150311392Y-116183475D01*
X149676393Y-116373974D01*
X148977893Y-116310473D01*
X148596895Y-116119974D01*
X148215893Y-115675475D01*
X148025393Y-115103973D01*
X148088894Y-114468974D01*
X148406392Y-113897477D01*
X148914393Y-113516475D01*
X149549395Y-113325976D01*
X149676393Y-113135477D01*
X149612892Y-112944977D01*
X149231893Y-112881477D01*
X148787394Y-113071976D01*
X148406392Y-113071976D01*
X148152392Y-112817976D01*
X148152392Y-112309975D01*
X148342894Y-111865476D01*
X148723893Y-111611476D01*
X149295394Y-111547975D01*
X149803391Y-111674977D01*
G37*
%TD.AperFunction*%
D11*
%TA.AperFunction,NonConductor*%
G36*
X178187890Y-101514977D02*
G01*
X178695891Y-101768977D01*
X179140390Y-102276977D01*
X179457891Y-102911977D01*
X179838891Y-104435977D01*
X180092890Y-106277477D01*
X180219890Y-108182477D01*
X180219890Y-110658976D01*
X180156390Y-111420977D01*
X179965890Y-112627476D01*
X179648391Y-113706974D01*
X179140390Y-114659473D01*
X178568891Y-115294476D01*
X177933891Y-115611973D01*
X177235390Y-115611973D01*
X176917891Y-115484975D01*
X176600391Y-115230975D01*
X176346390Y-114849977D01*
X176219391Y-114278475D01*
X176219391Y-113389477D01*
X176473391Y-109515977D01*
X176473391Y-108182477D01*
X176409890Y-108118977D01*
X176028891Y-107928476D01*
X175457390Y-107864977D01*
X175012891Y-107991977D01*
X174758892Y-108182477D01*
X174695391Y-110150976D01*
X174631892Y-111039978D01*
X174377891Y-112690977D01*
X173996891Y-114024475D01*
X173679392Y-114722975D01*
X173234890Y-115230975D01*
X172663391Y-115484975D01*
X171901392Y-115484975D01*
X171456890Y-115294476D01*
X171139391Y-115040476D01*
X170885391Y-114468974D01*
X170885391Y-113008475D01*
X171012391Y-110214477D01*
X170948892Y-108182477D01*
X170694892Y-105134477D01*
X170694892Y-103737477D01*
X170758391Y-103292976D01*
X170948892Y-102848477D01*
X171393391Y-102403977D01*
X171901392Y-102213477D01*
X172472891Y-102213477D01*
X172917391Y-102340476D01*
X173298391Y-102594477D01*
X173742891Y-103229477D01*
X174123891Y-104245476D01*
X174441390Y-105642477D01*
X174504892Y-106213977D01*
X175139891Y-106023476D01*
X176219391Y-106023476D01*
X176600391Y-106150476D01*
X176536890Y-106023476D01*
X176282890Y-103800977D01*
X176282890Y-102657977D01*
X176473391Y-102213477D01*
X176917891Y-101705477D01*
X177489390Y-101451477D01*
X177997391Y-101451477D01*
X178187890Y-101514977D01*
G37*
%TD.AperFunction*%
D10*
%TA.AperFunction,Conductor*%
%TO.N,Net-(D1-A)*%
G36*
X159455393Y-110404976D02*
G01*
X159772892Y-110785977D01*
X160217392Y-111992478D01*
X160407893Y-113135477D01*
X160407893Y-114151473D01*
X160344392Y-114405473D01*
X160153893Y-114659473D01*
X159772892Y-114659473D01*
X159709391Y-114595977D01*
X159518893Y-114278475D01*
X159391892Y-113452974D01*
X158693392Y-113579976D01*
X158566393Y-114341976D01*
X158375891Y-114722975D01*
X157994892Y-114976975D01*
X157550393Y-114976975D01*
X157423391Y-114849977D01*
X157232891Y-114532475D01*
X157232891Y-113325976D01*
X157550393Y-111674977D01*
X157867890Y-110849475D01*
X158248893Y-110404976D01*
X158629891Y-110214477D01*
X159074390Y-110214477D01*
X159455393Y-110404976D01*
G37*
%TD.AperFunction*%
D11*
%TA.AperFunction,NonConductor*%
G36*
X167837392Y-103800977D02*
G01*
X168599390Y-104118477D01*
X169170892Y-104626477D01*
X169615391Y-105324977D01*
X169932891Y-106150476D01*
X170250392Y-107483977D01*
X170440891Y-109071477D01*
X170440891Y-111611476D01*
X170377392Y-112246477D01*
X170123392Y-113262475D01*
X169742392Y-113770476D01*
X169361391Y-114024475D01*
X168853391Y-113960974D01*
X168535891Y-113706974D01*
X168345392Y-113325976D01*
X168218392Y-112690977D01*
X168154891Y-111166977D01*
X167900891Y-111166977D01*
X167265892Y-110976477D01*
X166440392Y-110595475D01*
X166249891Y-110595475D01*
X165932392Y-111611476D01*
X165551391Y-112246477D01*
X165170391Y-112500474D01*
X164662392Y-112500474D01*
X164217891Y-112246477D01*
X163900391Y-111865476D01*
X163709892Y-111230477D01*
X163709892Y-109960476D01*
X163963893Y-108309477D01*
X164344891Y-106531477D01*
X164852891Y-105007477D01*
X165297391Y-104308977D01*
X165741892Y-103927977D01*
X166440392Y-103673977D01*
X167265892Y-103673977D01*
X167837392Y-103800977D01*
G37*
%TD.AperFunction*%
%TA.AperFunction,NonConductor*%
G36*
X140151393Y-106975976D02*
G01*
X140595893Y-107356977D01*
X140786392Y-107801476D01*
X140786392Y-109007976D01*
X140659393Y-110087478D01*
X140659393Y-112373476D01*
X140722894Y-113071976D01*
X140786392Y-114532475D01*
X140659393Y-115040476D01*
X140341893Y-115421474D01*
X139960893Y-115611973D01*
X139389393Y-115611973D01*
X139135392Y-115484975D01*
X138817894Y-115103973D01*
X138690893Y-114468974D01*
X138627395Y-113135477D01*
X138246393Y-113770476D01*
X137357394Y-115103973D01*
X136722395Y-115802477D01*
X136023896Y-116310473D01*
X135452394Y-116564473D01*
X134753894Y-116564473D01*
X134563395Y-116500977D01*
X134118896Y-116119974D01*
X133928393Y-115738976D01*
X133928393Y-114913474D01*
X133991893Y-114722975D01*
X134309395Y-114214974D01*
X135007894Y-113643477D01*
X136214395Y-112754474D01*
X136912894Y-112119477D01*
X137293893Y-111611476D01*
X136849393Y-111484477D01*
X136214395Y-111039978D01*
X135769895Y-110468477D01*
X135515895Y-109896975D01*
X135515895Y-109134978D01*
X135642893Y-108753976D01*
X136087393Y-108182477D01*
X136722395Y-107610977D01*
X137674895Y-107102976D01*
X138500393Y-106848977D01*
X139770394Y-106848977D01*
X140151393Y-106975976D01*
G37*
%TD.AperFunction*%
D10*
%TA.AperFunction,Conductor*%
G36*
X157613893Y-100308477D02*
G01*
X158312393Y-100752977D01*
X158820390Y-101387978D01*
X159328391Y-102276977D01*
X159518893Y-102848477D01*
X159645892Y-102784977D01*
X159963391Y-102276977D01*
X160598392Y-101451477D01*
X161042891Y-101070477D01*
X161550892Y-100879977D01*
X162185893Y-100943477D01*
X162566891Y-101133977D01*
X163011393Y-101578477D01*
X163328892Y-102213477D01*
X163582892Y-103229477D01*
X163709892Y-104308977D01*
X163709892Y-105896477D01*
X163519391Y-107864977D01*
X163328892Y-108880977D01*
X163011393Y-109769977D01*
X162630392Y-110341478D01*
X162122392Y-110595475D01*
X161550892Y-110595475D01*
X161360391Y-110531977D01*
X161042891Y-110214477D01*
X160852392Y-109706476D01*
X160852392Y-108880977D01*
X160979392Y-108118977D01*
X161296892Y-105896477D01*
X161360391Y-104562977D01*
X161423892Y-104118477D01*
X161296892Y-104181977D01*
X160915891Y-104816977D01*
X160407893Y-105324977D01*
X159772892Y-105578977D01*
X159328391Y-105578977D01*
X158756893Y-105324977D01*
X158248893Y-104753477D01*
X157677391Y-103483477D01*
X157613893Y-108055476D01*
X157486892Y-108690475D01*
X157232891Y-109198476D01*
X156788392Y-109579477D01*
X156343893Y-109706476D01*
X155772392Y-109642975D01*
X155391393Y-109452476D01*
X155073892Y-109134978D01*
X154883393Y-108626977D01*
X154883393Y-107420477D01*
X154946893Y-106467977D01*
X155137393Y-102975477D01*
X155264391Y-101959477D01*
X155454894Y-101324477D01*
X155835893Y-100689477D01*
X156153393Y-100371977D01*
X156534392Y-100181477D01*
X157169390Y-100181477D01*
X157613893Y-100308477D01*
G37*
%TD.AperFunction*%
%TD*%
D12*
%TO.P,REF\u002A\u002A,*%
%TO.N,*%
X157500000Y-60000000D03*
%TD*%
D13*
%TO.P,R1,1*%
%TO.N,Net-(BT1-+)*%
X154981752Y-122000000D03*
D14*
%TO.P,R1,2*%
%TO.N,Net-(D1-A)*%
X160061752Y-122000000D03*
%TD*%
D15*
%TO.P,D1,1,K*%
%TO.N,Net-(BT1--)*%
X157316002Y-99016746D03*
D16*
%TO.P,D1,2,A*%
%TO.N,Net-(D1-A)*%
X159856002Y-99016746D03*
%TD*%
D17*
%TO.P,BT1,1,+*%
%TO.N,Net-(BT1-+)*%
X146515000Y-79002699D03*
X168485000Y-79002699D03*
D18*
%TO.P,BT1,2,-*%
%TO.N,Net-(BT1--)*%
X157500000Y-79002699D03*
%TD*%
D19*
%TO.N,Net-(BT1-+)*%
X168485000Y-79002699D02*
X168485000Y-76975520D01*
X161311179Y-69801699D02*
X153688821Y-69801699D01*
X154981752Y-122000000D02*
X146515000Y-113533248D01*
X168485000Y-76975520D02*
X161311179Y-69801699D01*
X146515000Y-76975520D02*
X146515000Y-79002699D01*
X146515000Y-113533248D02*
X146515000Y-79002699D01*
X153688821Y-69801699D02*
X146515000Y-76975520D01*
%TO.N,Net-(BT1--)*%
X157500000Y-98991870D02*
X157524876Y-99016746D01*
X157316002Y-99016746D02*
X157316002Y-79186697D01*
X157316002Y-79186697D02*
X157500000Y-79002699D01*
%TO.N,Net-(D1-A)*%
X159856002Y-99016746D02*
X159856002Y-121794250D01*
X159856002Y-121794250D02*
X160061752Y-122000000D01*
X160061752Y-99019870D02*
X160064876Y-99016746D01*
%TD*%
M02*
