%TF.GenerationSoftware,KiCad,Pcbnew,9.0.1*%
%TF.CreationDate,2026-03-19T22:20:21-04:00*%
%TF.ProjectId,HammerHacks II Badge PCB,48616d6d-6572-4486-9163-6b7320494920,rev?*%
%TF.SameCoordinates,Original*%
%TF.FileFunction,Profile,NP*%
%FSLAX46Y46*%
G04 Gerber Fmt 4.6, Leading zero omitted, Abs format (unit mm)*
G04 Created by KiCad (PCBNEW 9.0.1) date 2026-03-19 22:20:21*
%MOMM*%
%LPD*%
G01*
G04 APERTURE LIST*
%TA.AperFunction,Profile*%
%ADD10C,0.232833*%
%TD*%
%ADD11C,0.232833*%
%TA.AperFunction,Profile*%
%ADD12C,0.220000*%
%TD*%
%TA.AperFunction,Profile*%
%ADD13C,0.200000*%
%TD*%
G04 APERTURE END LIST*
D10*
X183959420Y-67810805D02*
X184186435Y-68264828D01*
X123347088Y-128725816D02*
X123347088Y-128498809D01*
D11*
X125465871Y-91344432D02*
X125343635Y-91222195D01*
X125238860Y-91117420D01*
X123876784Y-94219924D02*
X124165055Y-93931653D01*
X124482151Y-93614557D01*
D10*
X149150843Y-54341397D02*
X149226515Y-54265725D01*
X128417034Y-71594345D02*
X128417034Y-71443003D01*
X121682330Y-112153912D02*
X122060684Y-112380923D01*
X193191263Y-76664291D02*
X193039920Y-76664291D01*
X186380888Y-76285937D02*
X186607905Y-76058924D01*
X122741721Y-135838879D02*
X122817393Y-135763208D01*
X153691093Y-53660359D02*
X154523471Y-53660359D01*
X191148155Y-98835844D02*
X191223826Y-98760173D01*
X186759239Y-121461419D02*
X186910584Y-121461419D01*
D11*
X181386614Y-63951592D02*
X181497600Y-64062578D01*
X181537959Y-64102934D01*
D10*
X131519538Y-77875025D02*
X131368196Y-77723684D01*
X189483397Y-123050513D02*
X189634732Y-123050513D01*
X138632596Y-61076100D02*
X138708268Y-61076100D01*
X122817393Y-135763208D02*
X122817393Y-133190404D01*
D11*
X144232237Y-61984150D02*
X144288738Y-61842898D01*
X144383580Y-61605797D01*
D10*
X160198783Y-53660359D02*
X161031162Y-53660359D01*
D11*
X147788768Y-54644080D02*
X147829124Y-54603722D01*
X147864436Y-54568409D01*
D10*
X119866232Y-111624211D02*
X120168915Y-111624211D01*
X123044405Y-129785216D02*
X123044405Y-129558200D01*
X135454420Y-61605797D02*
X135757104Y-61303114D01*
X131897893Y-66221717D02*
X131897893Y-66146045D01*
X195007364Y-83550337D02*
X195007364Y-83398994D01*
X128341365Y-121083067D02*
X128946729Y-120931723D01*
X130762830Y-119872333D02*
X130762830Y-119569654D01*
X127735996Y-73032092D02*
X127887338Y-72880750D01*
X131973563Y-78556060D02*
X131973563Y-78177709D01*
D11*
X190694122Y-123655871D02*
X191345556Y-123981591D01*
X192358880Y-124488254D01*
D10*
X127130629Y-121612762D02*
X127357643Y-121461419D01*
X183051372Y-80069478D02*
X183051372Y-79312772D01*
D11*
X130460148Y-115710433D02*
X130583187Y-115735044D01*
X130838501Y-115786106D01*
D10*
X145594311Y-55173775D02*
X145745655Y-55173775D01*
X128114351Y-114802387D02*
X128492705Y-114878059D01*
X166782141Y-54568409D02*
X166933486Y-54568409D01*
D11*
X191148155Y-95581997D02*
X191106293Y-95498280D01*
X190996810Y-95279314D01*
D10*
X128114351Y-121234412D02*
X128341365Y-121083067D01*
X187591622Y-121234412D02*
X187667294Y-121158739D01*
X184489114Y-106327254D02*
X184564787Y-106327254D01*
X169960318Y-56384509D02*
X169960318Y-57292559D01*
X191072482Y-128574482D02*
X191072482Y-128801489D01*
X184186435Y-79615455D02*
X184035091Y-79615455D01*
X125995567Y-92782177D02*
X126298251Y-92782177D01*
D11*
X120168915Y-111624211D02*
X120198343Y-111653641D01*
X120244585Y-111699884D01*
D10*
X129854780Y-69248551D02*
X130006121Y-69097209D01*
X166933486Y-54568409D02*
X167236169Y-54719751D01*
D11*
X169808978Y-60092378D02*
X169848914Y-60172254D01*
X169884646Y-60243720D01*
D10*
X177073381Y-60319392D02*
X177678739Y-60319392D01*
X190391443Y-126531364D02*
X190467114Y-126607036D01*
D11*
X129703438Y-69626905D02*
X129792463Y-69404342D01*
X129854780Y-69248551D01*
D10*
X131973563Y-78177709D02*
X131746552Y-77950693D01*
X130914173Y-77496670D02*
X129627768Y-76891302D01*
D11*
X122287698Y-114121352D02*
X122212026Y-114045679D01*
X122136357Y-113970009D01*
X122287698Y-86501497D02*
X122242294Y-86456095D01*
X122136357Y-86350158D01*
D10*
X123422760Y-123050513D02*
X123574101Y-123050513D01*
X169884646Y-56308837D02*
X169960318Y-56384509D01*
X142567479Y-63043541D02*
X142794490Y-62816530D01*
D11*
X175635630Y-61605797D02*
X175862643Y-61378783D01*
X176165326Y-61076100D01*
D10*
X191677850Y-136746927D02*
X191677850Y-138865716D01*
X128946729Y-105267864D02*
X128644048Y-104965181D01*
X192888584Y-126228684D02*
X192812912Y-126153012D01*
X131973563Y-116240138D02*
X132351917Y-116467145D01*
X192358880Y-124488254D02*
X192510224Y-124488254D01*
X195461388Y-81507225D02*
X195537060Y-81431552D01*
X127963009Y-121234412D02*
X128114351Y-121234412D01*
X130838501Y-115786106D02*
X131216854Y-116013121D01*
D11*
X130611490Y-119115621D02*
X130563058Y-119018761D01*
X130460148Y-118812942D01*
X191299489Y-97927795D02*
X191349940Y-97877346D01*
X191375162Y-97852122D01*
D10*
X126146909Y-116391473D02*
X125617213Y-116013121D01*
X186683576Y-121537091D02*
X186759239Y-121461419D01*
X189180709Y-76966975D02*
X189029364Y-76966975D01*
D11*
X154523471Y-53660359D02*
X154584009Y-53599821D01*
X154599143Y-53584689D01*
D10*
X125617213Y-91647114D02*
X125465871Y-91344432D01*
X187440279Y-122142458D02*
X187667294Y-122293801D01*
X122666052Y-140606137D02*
X122666052Y-138411683D01*
X186380888Y-71745687D02*
X186380888Y-71594345D01*
X124482151Y-90058030D02*
X124482151Y-89982358D01*
X186986255Y-121385746D02*
X187137600Y-121385746D01*
X138329913Y-60849087D02*
X138405585Y-60849087D01*
X169581967Y-55703472D02*
X169733307Y-55779142D01*
X163301287Y-53963042D02*
X163679638Y-53963042D01*
X128946729Y-77950693D02*
X129703438Y-78556060D01*
X139994670Y-62135492D02*
X140070343Y-62135492D01*
X123649773Y-114878059D02*
X123422760Y-114802387D01*
D11*
X187742967Y-119720989D02*
X186432389Y-119771398D01*
X185775521Y-119796661D01*
D10*
X120471596Y-79842467D02*
X120547268Y-79766795D01*
X133259968Y-63951592D02*
X133411309Y-63800250D01*
X186607905Y-76058924D02*
X186759239Y-76058924D01*
X169960318Y-60849087D02*
X169960318Y-61000430D01*
X127887338Y-114651044D02*
X128114351Y-114802387D01*
X190694122Y-94900962D02*
X190694122Y-94825291D01*
X124482151Y-89982358D02*
X123271419Y-88241927D01*
X168522572Y-55022434D02*
X168976600Y-55098105D01*
D11*
X125692884Y-92933522D02*
X125870934Y-92844494D01*
X125995567Y-92782177D01*
X123801115Y-126985396D02*
X123909890Y-126767837D01*
X123952455Y-126682708D01*
D10*
X121833673Y-125774662D02*
X121530990Y-125925996D01*
D11*
X118882510Y-126455691D02*
X118769002Y-126512448D01*
X118579827Y-126607036D01*
D10*
X191299489Y-98381817D02*
X191299489Y-97927795D01*
D11*
X187969974Y-77421000D02*
X187929583Y-77443874D01*
X187889889Y-77466377D01*
X187851147Y-77488363D01*
X187813077Y-77509990D01*
X187775925Y-77531119D01*
X187739422Y-77551902D01*
X187703803Y-77572204D01*
X187668811Y-77592172D01*
X187634668Y-77611678D01*
X187601132Y-77630861D01*
X187568413Y-77649599D01*
X187536278Y-77668025D01*
X187504929Y-77686024D01*
X187474144Y-77703722D01*
X187444115Y-77721008D01*
X187414630Y-77738005D01*
X187385870Y-77754606D01*
X187357634Y-77770927D01*
X187330095Y-77786869D01*
X187303062Y-77802541D01*
X187276698Y-77817849D01*
X187250820Y-77832896D01*
X187225584Y-77847594D01*
X187200817Y-77862042D01*
X187176665Y-77876154D01*
X187152965Y-77890025D01*
X187129853Y-77903575D01*
X187107177Y-77916892D01*
X187085064Y-77929901D01*
X187063371Y-77942687D01*
X187042216Y-77955179D01*
X187021465Y-77967455D01*
X187001228Y-77979450D01*
X186981381Y-77991237D01*
X186962024Y-78002757D01*
X186943043Y-78014076D01*
X186924528Y-78025139D01*
X186906375Y-78036010D01*
X186888667Y-78046638D01*
X186871307Y-78057080D01*
X186854370Y-78067290D01*
X186837768Y-78077322D01*
X186821568Y-78087134D01*
X186805690Y-78096775D01*
X186790194Y-78106207D01*
X186775007Y-78115474D01*
X186760182Y-78124543D01*
X186745655Y-78133453D01*
X186731470Y-78142177D01*
X186717570Y-78150748D01*
X186703995Y-78159144D01*
X186690694Y-78167392D01*
X186677697Y-78175475D01*
X186664965Y-78183418D01*
X186652519Y-78191205D01*
X186640326Y-78198857D01*
X186628402Y-78206363D01*
X186616721Y-78213740D01*
X186605291Y-78220983D01*
X186594094Y-78228100D01*
X186583131Y-78235093D01*
X186572392Y-78241966D01*
X186561868Y-78248725D01*
X186551560Y-78255369D01*
X186541450Y-78261909D01*
X186531547Y-78268338D01*
X186521823Y-78274675D01*
X186512299Y-78280905D01*
X186502937Y-78287053D01*
X186493766Y-78293098D01*
X186484739Y-78299073D01*
X186475895Y-78304950D01*
X186467175Y-78310768D01*
X186458633Y-78316492D01*
X186441926Y-78327756D01*
X186425718Y-78338778D01*
X186409951Y-78349595D01*
X186394561Y-78360248D01*
X186379478Y-78370782D01*
X186364624Y-78381252D01*
X186349905Y-78391721D01*
X186335206Y-78402271D01*
X186320379Y-78413007D01*
X186305217Y-78424081D01*
X186289403Y-78435725D01*
X186272389Y-78448344D01*
X186253014Y-78462805D01*
X186229545Y-78480392D01*
D10*
X193796630Y-126455691D02*
X193720959Y-126380029D01*
X118882510Y-124866606D02*
X119033852Y-124866606D01*
X174046544Y-62892199D02*
X174349224Y-62589517D01*
D11*
X126222580Y-114045681D02*
X126273027Y-114096127D01*
X126298251Y-114121352D01*
D10*
X116309702Y-126607036D02*
X116309702Y-126304357D01*
D11*
X119487876Y-126380029D02*
X119181503Y-126418321D01*
X118882510Y-126455691D01*
D10*
X152102003Y-53811700D02*
X152858713Y-53811700D01*
D11*
X190315771Y-76512949D02*
X190289065Y-76539656D01*
X190240099Y-76588622D01*
D10*
X153615420Y-53736030D02*
X153691093Y-53660359D01*
X191829184Y-89755345D02*
X192056201Y-89528334D01*
X126373923Y-76664291D02*
X126752276Y-76739962D01*
X184337780Y-79464111D02*
X184186435Y-79615455D01*
X148318463Y-54492739D02*
X148394131Y-54417067D01*
X147864436Y-54568409D02*
X148318463Y-54492739D01*
X118579827Y-126607036D02*
X117898790Y-126682708D01*
X138102901Y-60622076D02*
X138329913Y-60849087D01*
D11*
X186153872Y-71215992D02*
X186117639Y-71071043D01*
X186078209Y-70913309D01*
X122060684Y-86047475D02*
X121552609Y-85094834D01*
X121455317Y-84912412D01*
D10*
X133259968Y-64027261D02*
X133259968Y-63951592D01*
X184791802Y-69248551D02*
X185170154Y-69778247D01*
X181386614Y-63875922D02*
X181386614Y-63951592D01*
D11*
X116612385Y-125925996D02*
X117369093Y-125547645D01*
D10*
X172911482Y-63573239D02*
X173289834Y-63573239D01*
X131670879Y-79388439D02*
X131746552Y-79312772D01*
X117898790Y-126682708D02*
X117823118Y-126758379D01*
D11*
X128038680Y-77421000D02*
X128129486Y-77451268D01*
X128265692Y-77496670D01*
X189786076Y-101635665D02*
X190121815Y-101174023D01*
X190391443Y-100803287D01*
X144383580Y-61605797D02*
X144566654Y-61349491D01*
X144761932Y-61076100D01*
X186456560Y-121688434D02*
X186490302Y-121755921D01*
X186532232Y-121839779D01*
D10*
X124330809Y-113364642D02*
X124482151Y-113364642D01*
D11*
X190467114Y-126758379D02*
X190562243Y-126948634D01*
X190618459Y-127061058D01*
D10*
X191223826Y-98457489D02*
X191299489Y-98381817D01*
X123195746Y-88014916D02*
X122893063Y-87636560D01*
X145215960Y-55552130D02*
X145215960Y-55476459D01*
D11*
X165041717Y-54190055D02*
X165079551Y-54227890D01*
X165117385Y-54265725D01*
X190694122Y-127515091D02*
X190751780Y-127630399D01*
X190845466Y-127817770D01*
X141281077Y-63119212D02*
X141449234Y-63287370D01*
X141659428Y-63497566D01*
X183505396Y-79993807D02*
X183320948Y-80086031D01*
X183051372Y-80220818D01*
D10*
X186380888Y-121764107D02*
X186456560Y-121688434D01*
D11*
X127887338Y-77269658D02*
X127912561Y-77294880D01*
X128038680Y-77421000D01*
X128341365Y-76210266D02*
X128038680Y-75983253D01*
D10*
X189120168Y-93675095D02*
X189483397Y-93160533D01*
X191148155Y-99062857D02*
X191148155Y-98835844D01*
X123574101Y-127893442D02*
X123574101Y-127742098D01*
X193115591Y-87636560D02*
X193266935Y-87258209D01*
X128492705Y-76210266D02*
X128341365Y-76210266D01*
X194099309Y-85744791D02*
X194099309Y-85593447D01*
D11*
X189483397Y-93160533D02*
X189590226Y-93053701D01*
X189786076Y-92857850D01*
D10*
X119412205Y-112380923D02*
X119412205Y-112002567D01*
X117823118Y-126758379D02*
X117671776Y-126758379D01*
X121001294Y-83701677D02*
X121001294Y-83550337D01*
X126752276Y-76739962D02*
X127130629Y-76966975D01*
D11*
X126525265Y-121839779D02*
X126596204Y-121792483D01*
X126752276Y-121688434D01*
D10*
X126298251Y-116391473D02*
X126146909Y-116391473D01*
D11*
X128871059Y-70686295D02*
X128915773Y-70462723D01*
X128946729Y-70307941D01*
X123120077Y-97700783D02*
X123086444Y-97667149D01*
X123044405Y-97625111D01*
X130535817Y-106024571D02*
X130362856Y-105938092D01*
X130233134Y-105873232D01*
D10*
X187894301Y-121083067D02*
X188045646Y-121083067D01*
X191753522Y-138941379D02*
X191753522Y-141514192D01*
X128038680Y-104435485D02*
X127508985Y-104132801D01*
D11*
X190088764Y-76588622D02*
X190034711Y-76642671D01*
X190013092Y-76664291D01*
D10*
X123422760Y-99289868D02*
X123422760Y-99138529D01*
X122136357Y-113970009D02*
X121682330Y-113742996D01*
X124406482Y-100954626D02*
X123952455Y-100349259D01*
D11*
X122590379Y-125698989D02*
X122319159Y-125726110D01*
X121833673Y-125774662D01*
X121530990Y-125925996D02*
X121011742Y-125977924D01*
X120774280Y-126001669D01*
D10*
X185699849Y-76588622D02*
X186078209Y-76437280D01*
X192737239Y-88166255D02*
X192964247Y-87939244D01*
D11*
X119790559Y-111699884D02*
X119831547Y-111658896D01*
X119866232Y-111624211D01*
X140978393Y-62892199D02*
X141205403Y-63119210D01*
X141205405Y-63119212D01*
X189407725Y-76815633D02*
X189246921Y-76922833D01*
X189180709Y-76966975D01*
D10*
X130687159Y-119493982D02*
X130611490Y-119115621D01*
X120774280Y-78556060D02*
X120849952Y-78177709D01*
X183127044Y-66600070D02*
X183127044Y-66675742D01*
X162620247Y-53811700D02*
X162695919Y-53887372D01*
D11*
X126903618Y-114348364D02*
X127145343Y-114396710D01*
X127281971Y-114424037D01*
D10*
X121379648Y-77269658D02*
X122287698Y-76437280D01*
D11*
X182521677Y-65767691D02*
X182642755Y-65888768D01*
X182673022Y-65919033D01*
D10*
X190694122Y-94825291D02*
X189786076Y-93992912D01*
D11*
X188121318Y-103527434D02*
X188620746Y-103028007D01*
X189256380Y-102392371D01*
D10*
X120244585Y-112910618D02*
X120093243Y-112910618D01*
X129627768Y-76891302D02*
X129476427Y-76739962D01*
X162695919Y-53887372D02*
X163225614Y-53887372D01*
X184035091Y-79615455D02*
X183808084Y-79842467D01*
X144988944Y-56006155D02*
X145064615Y-55703472D01*
X191677850Y-138865716D02*
X191753522Y-138941379D01*
X120622938Y-82415275D02*
X120622938Y-82188264D01*
X122893063Y-87636560D02*
X122817393Y-87409549D01*
X122741721Y-138336012D02*
X122741721Y-135838879D01*
D11*
X126298251Y-114121352D02*
X126495203Y-114160741D01*
X126676604Y-114197020D01*
D10*
X122590379Y-76285937D02*
X123195746Y-76134595D01*
X182218989Y-107992012D02*
X182446005Y-107765001D01*
D11*
X191375162Y-96414377D02*
X191342442Y-96381656D01*
X191299489Y-96338705D01*
D10*
X167992877Y-54795420D02*
X168068549Y-54871092D01*
X141205405Y-63119212D02*
X141281077Y-63119212D01*
X186002537Y-78556060D02*
X185624176Y-78858744D01*
D11*
X149680538Y-54265725D02*
X149741077Y-54205187D01*
X149756210Y-54190055D01*
D10*
X144761932Y-61076100D02*
X144761932Y-60924758D01*
D11*
X187288934Y-104208474D02*
X187470550Y-104026861D01*
X187591622Y-103905790D01*
X168976600Y-55098105D02*
X169055559Y-55137585D01*
X169127939Y-55173775D01*
D10*
X183429724Y-67054095D02*
X183732412Y-67583791D01*
X120925621Y-83323322D02*
X120774280Y-83020642D01*
X126827946Y-116769833D02*
X126298251Y-116391473D01*
X186910584Y-121461419D02*
X186986255Y-121385746D01*
X120471596Y-111699884D02*
X120547268Y-111775556D01*
X175257280Y-61832809D02*
X175332951Y-61832809D01*
X188045646Y-103527434D02*
X188121318Y-103527434D01*
D11*
X127357643Y-121461419D02*
X127483760Y-121436197D01*
X127735996Y-121385746D01*
D10*
X123952455Y-100349259D02*
X123422760Y-99289868D01*
X124709163Y-115483426D02*
X124557821Y-115483426D01*
D11*
X120849952Y-78177709D02*
X120982375Y-77912860D01*
X121076963Y-77723684D01*
X131746552Y-66373059D02*
X131784385Y-66335225D01*
X131897893Y-66221717D01*
D10*
X131443868Y-106629939D02*
X131292526Y-106478599D01*
D11*
X195310045Y-79161427D02*
X195282577Y-79024081D01*
X195234372Y-78783076D01*
D10*
X186607905Y-104662496D02*
X186683576Y-104662496D01*
X182673022Y-107613662D02*
X182748684Y-107613662D01*
X122590379Y-142573583D02*
X122590379Y-140681808D01*
X169884646Y-60243720D02*
X169884646Y-60773416D01*
X119639218Y-111699884D02*
X119790559Y-111699884D01*
X121530990Y-112153912D02*
X121682330Y-112153912D01*
X191450834Y-131374301D02*
X191526505Y-131449974D01*
D11*
X127357643Y-116996841D02*
X127273730Y-116960878D01*
X126827946Y-116769833D01*
D10*
X145821327Y-55098105D02*
X145972667Y-55098105D01*
X122287698Y-76437280D02*
X122590379Y-76285937D01*
X122968735Y-123277520D02*
X123422760Y-123050513D01*
X120774280Y-82793627D02*
X120698610Y-82717959D01*
X130762830Y-119569654D02*
X130687159Y-119493982D01*
D11*
X152858713Y-53811700D02*
X152934381Y-53736030D01*
X123195746Y-95809010D02*
X123230672Y-95774086D01*
X123271419Y-95733342D01*
D10*
X123574101Y-123050513D02*
X124028126Y-122823496D01*
X133713993Y-63270555D02*
X135378748Y-61605797D01*
D11*
X122666052Y-138411683D02*
X122689082Y-138388654D01*
X122741721Y-138336012D01*
X123195746Y-129028504D02*
X123244932Y-128930133D01*
X123347088Y-128725816D01*
D10*
X188651013Y-122596481D02*
X189483397Y-123050513D01*
D11*
X173289834Y-63573239D02*
X173630354Y-63232718D01*
X173970872Y-62892199D01*
D10*
X189937419Y-123201848D02*
X190088764Y-123353192D01*
X128719718Y-76437280D02*
X128492705Y-76210266D01*
X132578930Y-116315802D02*
X132578930Y-107310977D01*
D11*
X180705576Y-63194883D02*
X181077051Y-63566359D01*
X181386614Y-63875922D01*
X125238860Y-115861778D02*
X124950781Y-115656008D01*
X124709163Y-115483426D01*
D10*
X150512917Y-54114384D02*
X150588588Y-54038712D01*
D11*
X184867475Y-106100243D02*
X185480182Y-105584276D01*
X186305216Y-104889509D01*
D10*
X190618459Y-100424931D02*
X190618459Y-100273591D01*
X195537060Y-81431552D02*
X195537060Y-79993807D01*
D11*
X180251552Y-62665187D02*
X180455864Y-62869500D01*
X180705576Y-63119212D01*
D10*
X187364607Y-121310083D02*
X187440279Y-121234412D01*
X186607905Y-72124041D02*
X186380888Y-71745687D01*
D11*
X190996810Y-99365540D02*
X191110319Y-99138523D01*
X191148155Y-99062857D01*
D10*
X123271419Y-95733342D02*
X123271419Y-95506326D01*
X190845466Y-127817770D02*
X190845466Y-128044787D01*
X130460148Y-118812942D02*
X130081792Y-118434591D01*
X182975701Y-66373059D02*
X182975701Y-66448728D01*
D11*
X121076963Y-77723684D02*
X121221426Y-77543105D01*
X121379648Y-77345328D01*
X182900029Y-107462317D02*
X183158171Y-107314807D01*
X183429724Y-107159634D01*
D10*
X128114351Y-72199712D02*
X128417034Y-71594345D01*
X191299489Y-96338705D02*
X191299489Y-96036025D01*
X122439038Y-86879853D02*
X122287698Y-86501497D01*
X121152635Y-111926895D02*
X121530990Y-112153912D01*
X195007364Y-78329049D02*
X194856021Y-78177709D01*
D11*
X129325085Y-120780388D02*
X129379134Y-120726335D01*
X129400754Y-120704716D01*
D10*
X127735996Y-75907582D02*
X127508985Y-75680570D01*
X195537060Y-79993807D02*
X195461388Y-79918139D01*
D11*
X123271419Y-88241927D02*
X123195746Y-88014916D01*
X194629005Y-126228684D02*
X194554267Y-126284739D01*
X194326326Y-126455691D01*
D10*
X147107729Y-54719751D02*
X147788768Y-54644080D01*
X169884646Y-60016709D02*
X169808978Y-60092378D01*
X122893063Y-114424037D02*
X122287698Y-114121352D01*
X123952455Y-126682708D02*
X123952455Y-126455691D01*
D11*
X122136357Y-86350158D02*
X122092915Y-86176395D01*
X122060684Y-86047475D01*
D12*
X182824357Y-78329049D02*
X183354051Y-77875025D01*
D11*
X121152635Y-113440314D02*
X121097601Y-113385281D01*
X121001294Y-113288974D01*
D10*
X178359779Y-60849087D02*
X178435451Y-60849087D01*
X119412205Y-112002567D02*
X119639218Y-111699884D01*
D11*
X120093243Y-124412583D02*
X120522045Y-124198183D01*
X121001294Y-123958559D01*
X146502362Y-54946762D02*
X146596949Y-54899469D01*
X146805045Y-54795420D01*
D10*
X169884646Y-56157497D02*
X169884646Y-56308837D01*
X195385716Y-82339603D02*
X195385716Y-82036920D01*
X193493942Y-126380029D02*
X193418280Y-126304357D01*
X120547268Y-111775556D02*
X121152635Y-111926895D01*
D11*
X131822221Y-78858744D02*
X131887082Y-78729022D01*
X131973563Y-78556060D01*
D10*
X193947975Y-77118316D02*
X193872302Y-77118316D01*
D11*
X191299489Y-129558200D02*
X191351594Y-129662402D01*
X191450834Y-129860879D01*
D10*
X183808084Y-79842467D02*
X183656739Y-79842467D01*
X127206302Y-75377886D02*
X127206302Y-74621180D01*
D11*
X129400754Y-120704716D02*
X129610780Y-120652207D01*
X130006121Y-120553371D01*
D12*
X185624176Y-70232272D02*
X185851193Y-70686295D01*
D10*
X128568376Y-104965181D02*
X128038680Y-104435485D01*
D11*
X127206302Y-74621180D02*
X127357643Y-74394166D01*
D10*
X186229545Y-121537091D02*
X186229545Y-121764107D01*
X123498430Y-127969114D02*
X123574101Y-127893442D01*
D11*
X192888584Y-124639599D02*
X193109284Y-124772018D01*
X193266935Y-124866606D01*
D10*
X185699849Y-119872333D02*
X182218989Y-119872333D01*
X129930450Y-78631733D02*
X130081792Y-78783076D01*
X121303976Y-113440314D02*
X121152635Y-113440314D01*
X132351917Y-116467145D02*
X132427588Y-116467145D01*
X123120077Y-96792733D02*
X123120077Y-96187364D01*
X151042612Y-53963042D02*
X151496636Y-53963042D01*
X123044405Y-129558200D02*
X123195746Y-129255521D01*
D11*
X190996810Y-95279314D02*
X190926960Y-95192000D01*
X190694122Y-94900962D01*
D10*
X187440279Y-121234412D02*
X187591622Y-121234412D01*
X147032057Y-54795420D02*
X147107729Y-54719751D01*
X186910584Y-104435485D02*
X186986255Y-104435485D01*
X139767659Y-61908478D02*
X139994670Y-62135492D01*
X122817393Y-87409549D02*
X122439038Y-86879853D01*
D11*
X187364607Y-74091483D02*
X187241425Y-73886175D01*
X187137600Y-73713128D01*
D10*
X192056201Y-76437280D02*
X191980529Y-76361608D01*
X168068549Y-54871092D02*
X168219888Y-54871092D01*
X123044405Y-97625111D02*
X123044405Y-96868405D01*
D11*
X182673022Y-65994705D02*
X182753418Y-66075104D01*
X182824357Y-66146045D01*
X124103798Y-113213301D02*
X124212369Y-113285682D01*
X124330809Y-113364642D01*
D10*
X190391443Y-125698989D02*
X190315771Y-125623317D01*
X173970872Y-62892199D02*
X174046544Y-62892199D01*
D11*
X120622938Y-82188264D02*
X120595059Y-82160383D01*
X120547268Y-82112592D01*
D10*
X142113455Y-63270555D02*
X142567479Y-63043541D01*
X129854780Y-105797559D02*
X129400754Y-105570548D01*
X117142080Y-126985396D02*
X116688055Y-126985396D01*
X117671776Y-126758379D02*
X117596107Y-126834051D01*
X130233134Y-105873232D02*
X129854780Y-105797559D01*
D11*
X123195746Y-98306149D02*
X123166319Y-98276720D01*
X123120077Y-98230477D01*
D10*
X121455317Y-84912412D02*
X121379648Y-84534057D01*
D11*
X125238860Y-122369474D02*
X126146909Y-121915450D01*
D10*
X195083037Y-83323322D02*
X195083037Y-83171983D01*
X120698610Y-78631733D02*
X120774280Y-78556060D01*
X131595210Y-66600070D02*
X131746552Y-66448728D01*
X144837604Y-56308837D02*
X144913276Y-56233167D01*
D11*
X187137600Y-73713128D02*
X187085980Y-73403429D01*
X187061927Y-73259103D01*
D10*
X123120077Y-98230477D02*
X123120077Y-97700783D01*
X190694122Y-127363746D02*
X190694122Y-127515091D01*
X194856021Y-84004361D02*
X194856021Y-83853022D01*
X123801115Y-115029404D02*
X123649773Y-114878059D01*
X122439038Y-123504537D02*
X122817393Y-123277520D01*
X120547268Y-82112592D02*
X120547268Y-81658564D01*
X127508985Y-117148184D02*
X127357643Y-116996841D01*
X189786076Y-93992912D02*
X189483397Y-93917239D01*
D11*
X132351917Y-107083961D02*
X132079504Y-106947756D01*
X131443868Y-106629939D01*
X195007364Y-83398994D02*
X195040084Y-83366273D01*
X195083037Y-83323322D01*
D10*
X190240099Y-76588622D02*
X190088764Y-76588622D01*
X119563548Y-124639599D02*
X119941901Y-124412583D01*
X186229545Y-78480392D02*
X186002537Y-78556060D01*
X186532232Y-121839779D02*
X186759239Y-121839779D01*
X175559959Y-61605797D02*
X175635630Y-61605797D01*
D11*
X192434551Y-88847295D02*
X192484231Y-88723101D01*
X192585896Y-88468939D01*
X174651912Y-62438176D02*
X174899563Y-62190525D01*
X175257280Y-61832809D01*
D10*
X186380888Y-104889509D02*
X186607905Y-104662496D01*
X187667294Y-121158739D02*
X187818639Y-121158739D01*
X164133666Y-54038712D02*
X164209337Y-54114384D01*
X190921138Y-99743892D02*
X190921138Y-99592551D01*
X131897893Y-66146045D02*
X132049235Y-65994705D01*
X123498430Y-128196121D02*
X123498430Y-127969114D01*
X131595210Y-66675742D02*
X131595210Y-66600070D01*
D11*
X166706475Y-54492739D02*
X166738334Y-54524599D01*
X166782141Y-54568409D01*
D10*
X186229545Y-121764107D02*
X186380888Y-121764107D01*
D11*
X139464976Y-61681467D02*
X139540647Y-61757139D01*
X139691987Y-61908478D01*
D10*
X123347088Y-98911512D02*
X123195746Y-98608829D01*
X178889474Y-61303114D02*
X178965146Y-61303114D01*
X127281971Y-76966975D02*
X127887338Y-77269658D01*
X152026335Y-53887372D02*
X152102003Y-53811700D01*
X122893063Y-133114732D02*
X122893063Y-130087895D01*
X130611490Y-68113489D02*
X130611490Y-68037816D01*
D11*
X144913276Y-56081825D02*
X144988944Y-56006155D01*
D10*
X169733307Y-55779142D02*
X169808978Y-56081825D01*
X125087518Y-122369474D02*
X125238860Y-122369474D01*
D11*
X195385716Y-79237100D02*
X195361822Y-79213204D01*
X195310045Y-79161427D01*
X193418280Y-87106864D02*
X193742580Y-86458258D01*
X194099309Y-85744791D01*
D10*
X190088764Y-123353192D02*
X190240099Y-123353192D01*
X140070343Y-62135492D02*
X140524365Y-62589517D01*
X190240099Y-125850333D02*
X190240099Y-126001669D01*
X133032955Y-64632628D02*
X133108626Y-64178603D01*
D11*
X186380888Y-71594345D02*
X186292604Y-71447207D01*
X186153872Y-71215992D01*
D10*
X126071240Y-114045681D02*
X126222580Y-114045681D01*
X120622938Y-79085755D02*
X120698610Y-79010087D01*
D11*
X117444765Y-126834051D02*
X117256208Y-126928329D01*
X117142080Y-126985396D01*
D10*
X121379648Y-77345328D02*
X121379648Y-77269658D01*
X190921138Y-128271794D02*
X191072482Y-128574482D01*
X131065512Y-106402926D02*
X130535817Y-106024571D01*
X142794490Y-62816530D02*
X143097175Y-62740859D01*
X120244585Y-111699884D02*
X120471596Y-111699884D01*
X131746552Y-79312772D02*
X131746552Y-79085755D01*
X185624176Y-78858744D02*
X185321497Y-78934416D01*
X126071240Y-92176810D02*
X125617213Y-91647114D01*
X192510224Y-124488254D02*
X192737239Y-124639599D01*
X187667294Y-122293801D02*
X187818639Y-122293801D01*
X176165326Y-61076100D02*
X176240997Y-61076100D01*
X123044405Y-96868405D02*
X123120077Y-96792733D01*
X190542787Y-123504537D02*
X190694122Y-123655871D01*
X127357643Y-74015812D02*
X127433313Y-73940141D01*
X164663361Y-54190055D02*
X165041717Y-54190055D01*
X123952455Y-126455691D02*
X124028126Y-126380029D01*
X133411309Y-63800250D02*
X133713993Y-63270555D01*
D11*
X124179468Y-115256411D02*
X124098753Y-115175699D01*
X124028126Y-115105075D01*
D10*
X191526505Y-130163567D02*
X191526505Y-130466246D01*
D11*
X123347088Y-128498809D02*
X123399882Y-128393222D01*
X123498430Y-128196121D01*
X189786076Y-92782177D02*
X190144867Y-92343656D01*
X190467114Y-91949799D01*
X124633493Y-90209369D02*
X124549414Y-90125291D01*
X124482151Y-90058030D01*
D10*
X144837604Y-58881647D02*
X144837604Y-56308837D01*
X190240099Y-126001669D02*
X190391443Y-126304357D01*
X192510224Y-76437280D02*
X192056201Y-76437280D01*
X126827946Y-103527434D02*
X126752276Y-103527434D01*
D11*
X192283217Y-88998635D02*
X192358884Y-88922965D01*
X192434551Y-88847295D01*
X195234372Y-82642287D02*
X195265683Y-82579668D01*
X195385716Y-82339603D01*
X165949763Y-54341397D02*
X165960571Y-54352204D01*
X166025435Y-54417067D01*
D12*
X182819983Y-78858744D02*
X183051372Y-79312772D01*
D10*
X186229545Y-76285937D02*
X186380888Y-76285937D01*
D11*
X128946729Y-120931723D02*
X129057054Y-120858177D01*
X129173743Y-120780388D01*
X187515951Y-74696850D02*
X187415871Y-74496688D01*
X187364607Y-74394166D01*
D10*
X169127939Y-55173775D02*
X169581967Y-55627801D01*
X182218989Y-119872333D02*
X182218989Y-107992012D01*
X191829184Y-126001669D02*
X191753522Y-125925996D01*
X127735996Y-121385746D02*
X127963009Y-121234412D01*
X189786076Y-101711333D02*
X189786076Y-101635665D01*
X189180709Y-119645325D02*
X187818639Y-119645325D01*
X127357643Y-74394166D02*
X127357643Y-74015812D01*
X191602177Y-136671254D02*
X191677850Y-136746927D01*
X191753522Y-125925996D02*
X191375162Y-125925996D01*
D12*
X182819983Y-78858744D02*
X182824357Y-78329049D01*
D10*
X192283217Y-89149978D02*
X192283217Y-88998635D01*
D11*
X170641357Y-62135492D02*
X170806456Y-62300593D01*
X170868364Y-62362503D01*
D10*
X131368196Y-116013121D02*
X131595210Y-116164466D01*
X186986255Y-104435485D02*
X187213272Y-104208474D01*
X187137600Y-121385746D02*
X187213272Y-121310083D01*
X131670879Y-79615455D02*
X131746552Y-79539783D01*
X120547268Y-79766795D02*
X120547268Y-79388439D01*
X187818639Y-122293801D02*
X188272662Y-122520808D01*
D11*
X176240997Y-61076100D02*
X177073381Y-60319392D01*
D12*
X183354051Y-77875025D02*
X185548514Y-76739962D01*
D10*
X161787869Y-53736030D02*
X161863541Y-53811700D01*
X122817393Y-123277520D02*
X122968735Y-123277520D01*
X191526505Y-142951933D02*
X122893063Y-142951933D01*
D11*
X135832776Y-61303114D02*
X136004993Y-61145248D01*
X136740827Y-60470734D01*
D10*
X154599143Y-53584689D02*
X155431523Y-53584689D01*
D11*
X190467114Y-100576270D02*
X190563422Y-100479963D01*
X190618459Y-100424931D01*
X145745655Y-55173775D02*
X145806194Y-55113237D01*
X145821327Y-55098105D01*
X185321497Y-78934416D02*
X185310440Y-78941559D01*
X185299451Y-78948634D01*
X185288509Y-78955655D01*
X185277634Y-78962610D01*
X185266804Y-78969512D01*
X185256039Y-78976349D01*
X185245317Y-78983135D01*
X185234659Y-78989857D01*
X185224041Y-78996530D01*
X185213486Y-79003141D01*
X185202968Y-79009704D01*
X185192513Y-79016205D01*
X185182091Y-79022662D01*
X185171731Y-79029057D01*
X185161402Y-79035410D01*
X185151133Y-79041702D01*
X185140892Y-79047955D01*
X185130711Y-79054147D01*
X185110455Y-79066396D01*
X185090359Y-79078457D01*
X185070413Y-79090335D01*
X185050607Y-79102037D01*
X185030934Y-79113569D01*
X185011383Y-79124937D01*
X184991945Y-79136148D01*
X184972608Y-79147209D01*
X184953363Y-79158127D01*
X184934197Y-79168908D01*
X184915099Y-79179560D01*
X184896056Y-79190091D01*
X184877054Y-79200509D01*
X184858079Y-79210821D01*
X184839116Y-79221038D01*
X184820146Y-79231168D01*
X184801152Y-79241221D01*
X184782113Y-79251209D01*
X184763007Y-79261142D01*
X184743809Y-79271035D01*
X184724491Y-79280901D01*
X184705020Y-79290756D01*
X184685360Y-79300618D01*
X184665469Y-79310508D01*
X184645296Y-79320451D01*
X184624782Y-79330474D01*
X184603853Y-79340613D01*
X184582420Y-79350909D01*
X184560367Y-79361416D01*
X184537543Y-79372203D01*
X184513744Y-79383366D01*
X184488676Y-79395039D01*
X184461892Y-79407426D01*
X184432642Y-79420871D01*
X184399463Y-79436040D01*
X184358586Y-79454653D01*
X184337780Y-79464111D01*
X122893063Y-142951933D02*
X122751345Y-142774787D01*
X122590379Y-142573583D01*
D10*
X191829184Y-142422239D02*
X191753522Y-142497911D01*
D11*
X120774280Y-126001669D02*
X120721641Y-126054312D01*
X120698610Y-126077341D01*
X129400754Y-105570548D02*
X129330129Y-105499922D01*
X129249413Y-105419204D01*
D10*
X124406482Y-101030298D02*
X124406482Y-100954626D01*
X191148155Y-76437280D02*
X190694122Y-76437280D01*
D11*
X132503259Y-65237997D02*
X132742883Y-64964140D01*
X133032955Y-64632628D01*
D10*
X190996810Y-99516879D02*
X190996810Y-99365540D01*
X143097175Y-62740859D02*
X143853885Y-62362503D01*
X144913276Y-58957317D02*
X144837604Y-58881647D01*
D11*
X161031162Y-53660359D02*
X161086196Y-53715393D01*
X161106834Y-53736030D01*
D10*
X187818639Y-119645325D02*
X187742967Y-119720989D01*
X190467114Y-91949799D02*
X190769795Y-91420103D01*
X178435451Y-60849087D02*
X178889474Y-61303114D01*
X166025435Y-54417067D02*
X166706475Y-54492739D01*
X123044405Y-114575371D02*
X122893063Y-114424037D01*
D11*
X171776419Y-62740859D02*
X172308431Y-63150099D01*
X172760138Y-63497566D01*
X130157463Y-120477700D02*
X130439967Y-120195195D01*
X130762830Y-119872333D01*
X182748684Y-107613662D02*
X182818539Y-107543808D01*
X182900029Y-107462317D01*
D10*
X125617213Y-116013121D02*
X125238860Y-115861778D01*
D11*
X123876784Y-125320629D02*
X123772009Y-125373019D01*
X123574101Y-125471973D01*
D10*
X123195746Y-129255521D02*
X123195746Y-129028504D01*
X123195746Y-76134595D02*
X123271419Y-76058924D01*
X124633493Y-90285041D02*
X124633493Y-90209369D01*
X171625076Y-62740859D02*
X171776419Y-62740859D01*
X193872302Y-77118316D02*
X193720959Y-76966975D01*
X129476427Y-76739962D02*
X129325085Y-76739962D01*
X129098071Y-70232272D02*
X129703438Y-69626905D01*
X186305216Y-104889509D02*
X186380888Y-104889509D01*
D11*
X191299489Y-96036025D02*
X191266701Y-96003232D01*
X191223826Y-95960353D01*
D10*
X124179468Y-122823496D02*
X124557821Y-122596481D01*
X127130629Y-76966975D02*
X127281971Y-76966975D01*
X163225614Y-53887372D02*
X163301287Y-53963042D01*
X130460148Y-68264828D02*
X130611490Y-68113489D01*
X124936177Y-76134595D02*
X125163188Y-76134595D01*
X120774280Y-83020642D02*
X120774280Y-82793627D01*
X190618459Y-100273591D02*
X190921138Y-99743892D01*
X194326326Y-126455691D02*
X193796630Y-126455691D01*
X123195746Y-98608829D02*
X123195746Y-98306149D01*
X184564787Y-106327254D02*
X184791802Y-106100243D01*
X191148155Y-128877161D02*
X191148155Y-129028504D01*
X121001294Y-123958559D02*
X121606659Y-123807216D01*
X131519538Y-79615455D02*
X131670879Y-79615455D01*
X169581967Y-55627801D02*
X169581967Y-55703472D01*
X124028126Y-115105075D02*
X123801115Y-115029404D01*
D11*
X192434551Y-126077341D02*
X192211685Y-126049484D01*
X191829184Y-126001669D01*
D10*
X119639218Y-112683607D02*
X119412205Y-112380923D01*
X191223826Y-98760173D02*
X191223826Y-98457489D01*
X123574101Y-113061958D02*
X123725442Y-113061958D01*
X131822221Y-79010087D02*
X131822221Y-78858744D01*
X191526505Y-131449974D02*
X191602177Y-136671254D01*
X119412205Y-124639599D02*
X119563548Y-124639599D01*
D11*
X124028126Y-126228684D02*
X124070502Y-126143933D01*
X124179468Y-125925996D01*
D10*
X130006121Y-69097209D02*
X130308805Y-68491842D01*
D11*
X181537959Y-64102934D02*
X181614179Y-64407826D01*
X181689295Y-64708301D01*
D10*
X128644048Y-104965181D02*
X128568376Y-104965181D01*
X192812912Y-76588622D02*
X192510224Y-76437280D01*
D11*
X156188228Y-53509017D02*
X156248766Y-53448479D01*
X156263900Y-53433347D01*
X121606659Y-123807216D02*
X121760133Y-123704901D01*
X121833673Y-123655871D01*
D10*
X123876784Y-94295595D02*
X123876784Y-94219924D01*
D11*
X178965146Y-61303114D02*
X179393945Y-61731912D01*
X180251552Y-62589517D01*
X116688055Y-126985396D02*
X116638478Y-126935816D01*
X116612385Y-126909724D01*
D10*
X131292526Y-67129767D02*
X131292526Y-67054095D01*
X190769795Y-91420103D02*
X191148155Y-90966076D01*
X186229545Y-121537091D02*
X186683576Y-121537091D01*
X191526505Y-130466246D02*
X191450834Y-130541919D01*
X133108626Y-64178603D02*
X133259968Y-64027261D01*
D11*
X124709163Y-122596481D02*
X124905673Y-122478578D01*
X125087518Y-122369474D01*
D10*
X190618459Y-127288075D02*
X190694122Y-127363746D01*
X123195746Y-96111693D02*
X123195746Y-95809010D01*
X194250654Y-125396302D02*
X194401997Y-125396302D01*
X182975701Y-66448728D02*
X183127044Y-66600070D01*
X128946729Y-70307941D02*
X129098071Y-70232272D01*
X182521677Y-65692022D02*
X182521677Y-65767691D01*
D11*
X126298251Y-92782177D02*
X126383380Y-92697049D01*
X126449593Y-92630837D01*
D10*
X130081792Y-78783076D02*
X130233134Y-78783076D01*
X127433313Y-73788799D02*
X127584655Y-73637457D01*
X125541544Y-92933522D02*
X125692884Y-92933522D01*
X123271419Y-95506326D02*
X123347088Y-95430658D01*
X120698610Y-82717959D02*
X120698610Y-82490943D01*
D11*
X191223826Y-95960353D02*
X191169862Y-95690544D01*
X191148155Y-95581997D01*
D10*
X190164426Y-125774662D02*
X190240099Y-125850333D01*
D11*
X195234372Y-78783076D02*
X195007364Y-78329050D01*
X195007364Y-78329049D01*
X124179468Y-125925996D02*
X124212717Y-125726506D01*
X124255140Y-125471973D01*
D10*
X128644048Y-71140320D02*
X128719718Y-70837636D01*
X123725442Y-127439419D02*
X123725442Y-127212403D01*
X151572307Y-53887372D02*
X152026335Y-53887372D01*
X121682330Y-113742996D02*
X121303976Y-113440314D01*
X152934381Y-53736030D02*
X153615420Y-53736030D01*
X131368196Y-77723684D02*
X131216854Y-77723684D01*
D11*
X186683576Y-104662496D02*
X186847524Y-104498545D01*
X186910584Y-104435485D01*
D10*
X193191263Y-126304357D02*
X193115591Y-126228684D01*
X161106834Y-53736030D02*
X161787869Y-53736030D01*
D11*
X123574101Y-127742098D02*
X123632957Y-127624388D01*
X123725442Y-127439419D01*
D10*
X190694122Y-76437280D02*
X190618459Y-76512949D01*
X192964247Y-76588622D02*
X192812912Y-76588622D01*
X124482151Y-93538885D02*
X125541544Y-92933522D01*
X192812912Y-126153012D02*
X192510224Y-126153012D01*
X120547268Y-79388439D02*
X120622938Y-79312772D01*
X194856021Y-83853022D02*
X194931693Y-83777350D01*
X140524365Y-62589517D02*
X140600038Y-62589517D01*
X139691987Y-61908478D02*
X139767659Y-61908478D01*
D11*
X124255140Y-125471973D02*
X124145072Y-125361905D01*
X124103798Y-125320629D01*
D10*
X190013092Y-76664291D02*
X189407725Y-76815633D01*
X130460148Y-68340500D02*
X130460148Y-68264828D01*
X144761932Y-60924758D02*
X144913276Y-60622076D01*
D11*
X186910584Y-73107761D02*
X186885014Y-72954332D01*
X186834912Y-72653736D01*
D10*
X188045646Y-121083067D02*
X188348334Y-120931723D01*
D11*
X190315771Y-125623317D02*
X190207669Y-125731421D01*
X190164426Y-125774662D01*
D10*
X120622938Y-79312772D02*
X120622938Y-79085755D01*
D11*
X184186435Y-68264828D02*
X184482316Y-68671665D01*
X184791802Y-69097209D01*
X126222580Y-103073412D02*
X125768555Y-102619387D01*
X125163188Y-102014017D01*
X125163188Y-101938349D02*
X124860504Y-101635665D01*
D10*
X145064615Y-55703472D02*
X145215960Y-55552130D01*
D11*
X177830084Y-60470734D02*
X177926391Y-60518888D01*
X178132772Y-60622076D01*
D10*
X129854780Y-115407754D02*
X130460148Y-115710433D01*
D11*
X151496636Y-53963042D02*
X151517274Y-53942405D01*
X151572307Y-53887372D01*
D10*
X155507190Y-53509017D02*
X156188228Y-53509017D01*
D11*
X189256380Y-102316700D02*
X189576568Y-101950772D01*
X189786076Y-101711333D01*
X131595210Y-116164466D02*
X131846482Y-116214719D01*
X131973563Y-116240138D01*
X193039920Y-76664291D02*
X193015844Y-76640214D01*
X192964247Y-76588622D01*
D10*
X128114351Y-72351055D02*
X128114351Y-72199712D01*
X126752276Y-121688434D02*
X127130629Y-121612762D01*
D11*
X150966940Y-54038712D02*
X150982074Y-54023580D01*
X151042612Y-53963042D01*
D10*
X193720959Y-126380029D02*
X193493942Y-126380029D01*
D11*
X182521677Y-107765001D02*
X182617985Y-107668694D01*
X182673022Y-107613662D01*
D10*
X183656739Y-106932621D02*
X183959420Y-106781282D01*
X129476427Y-115332083D02*
X129854780Y-115407754D01*
D11*
X129249413Y-105419204D02*
X129086431Y-105337714D01*
X128946729Y-105267864D01*
X121833673Y-123655871D02*
X122125772Y-123582849D01*
X122439038Y-123504537D01*
D10*
X138405585Y-60849087D02*
X138632596Y-61076100D01*
X193720959Y-76966975D02*
X193191263Y-76664291D01*
X180705576Y-63119212D02*
X180705576Y-63194883D01*
X170565685Y-61908478D02*
X170641357Y-62135492D01*
X131443868Y-66902753D02*
X131443868Y-66827084D01*
X182446005Y-107765001D02*
X182521677Y-107765001D01*
D11*
X194401997Y-125396302D02*
X194504340Y-125532763D01*
X194629005Y-125698989D01*
D10*
X195461388Y-79539783D02*
X195385716Y-79464111D01*
X119941901Y-124412583D02*
X120093243Y-124412583D01*
D11*
X145972667Y-55098105D02*
X146115106Y-55026885D01*
X146275351Y-54946762D01*
D10*
X124860504Y-101559993D02*
X124406482Y-101030298D01*
X131216854Y-77723684D02*
X130914173Y-77496670D01*
X126071240Y-92252483D02*
X126071240Y-92176810D01*
X187061927Y-73259103D02*
X186910584Y-73107761D01*
D11*
X193569614Y-124942278D02*
X193687256Y-125036390D01*
X193947975Y-125244966D01*
D10*
X130081792Y-118434591D02*
X127508985Y-117148184D01*
X189559059Y-120023676D02*
X189180709Y-119645325D01*
X191753522Y-141514192D02*
X191829184Y-141589864D01*
D11*
X170187329Y-61454455D02*
X170355488Y-61656244D01*
X170565685Y-61908478D01*
X182067655Y-65162324D02*
X182428726Y-65583580D01*
X182521677Y-65692022D01*
X183732412Y-67583791D02*
X183845915Y-67697297D01*
X183959420Y-67810805D01*
D10*
X191829184Y-89906685D02*
X191829184Y-89755345D01*
X148394131Y-54417067D02*
X149150843Y-54341397D01*
D11*
X188272662Y-122520808D02*
X188516916Y-122569663D01*
X188651013Y-122596481D01*
D10*
X124860504Y-101635665D02*
X124860504Y-101559993D01*
X132200575Y-65767691D02*
X132503259Y-65237997D01*
D11*
X169884646Y-60773416D02*
X169920258Y-60809028D01*
X169960318Y-60849087D01*
D10*
X193115591Y-126228684D02*
X192888584Y-126228684D01*
D11*
X125238860Y-91117420D02*
X125137964Y-90915629D01*
X125087518Y-90814736D01*
D10*
X191980529Y-76361608D02*
X191223826Y-76361608D01*
D11*
X186834912Y-72653736D02*
X186762046Y-72580869D01*
X186683576Y-72502397D01*
D10*
X131746552Y-66448728D02*
X131746552Y-66373059D01*
X190391443Y-100803287D02*
X190467114Y-100576270D01*
X132049235Y-65994705D02*
X132049235Y-65919033D01*
D11*
X193947975Y-125244966D02*
X194100977Y-125321465D01*
X194250654Y-125396302D01*
X131292526Y-106478599D02*
X131208629Y-106450632D01*
X131065512Y-106402926D01*
X122590379Y-140681808D02*
X122606314Y-140665876D01*
X122666052Y-140606137D01*
D10*
X146805045Y-54795420D02*
X147032057Y-54795420D01*
X125163188Y-102014017D02*
X125163188Y-101938349D01*
X135757104Y-61303114D02*
X135832776Y-61303114D01*
X181689295Y-64708301D02*
X182067655Y-65086655D01*
D11*
X139010952Y-61303114D02*
X139222828Y-61514990D01*
X139389303Y-61681467D01*
D10*
X123271419Y-76058924D02*
X124860504Y-76058924D01*
D11*
X163679638Y-53963042D02*
X163709908Y-53993311D01*
X163755310Y-54038712D01*
D10*
X125844226Y-76361608D02*
X126373923Y-76664291D01*
D11*
X120547268Y-81658564D02*
X120514368Y-81625666D01*
X120471596Y-81582897D01*
X130233134Y-78783076D02*
X130480784Y-78959967D01*
X130762830Y-79161427D01*
D10*
X128417034Y-71443003D02*
X128644048Y-71140320D01*
X124406482Y-115332083D02*
X124179468Y-115256411D01*
D11*
X120093243Y-112910618D02*
X120032706Y-112880349D01*
X119639218Y-112683607D01*
D10*
X186759239Y-121839779D02*
X187288934Y-122142458D01*
X118352813Y-125093621D02*
X118504155Y-125093621D01*
D11*
X183127044Y-66675742D02*
X183222333Y-66771031D01*
X183278389Y-66827084D01*
D10*
X192056201Y-89528334D02*
X192056201Y-89376989D01*
X130762830Y-67886475D02*
X131065512Y-67356780D01*
X167236169Y-54719751D02*
X167992877Y-54795420D01*
X183278389Y-66827084D02*
X183278389Y-66902753D01*
X195385716Y-82036920D02*
X195461388Y-81961247D01*
X124860504Y-76058924D02*
X124936177Y-76134595D01*
X125087518Y-90814736D02*
X124633493Y-90285041D01*
X149226515Y-54265725D02*
X149680538Y-54265725D01*
X145215960Y-55476459D02*
X145594311Y-55173775D01*
X139389303Y-61681467D02*
X139464976Y-61681467D01*
X169808978Y-56081825D02*
X169884646Y-56157497D01*
X191450834Y-130541919D02*
X191450834Y-131374301D01*
X127887338Y-72653736D02*
X128114351Y-72351055D01*
X159290732Y-53509017D02*
X159366405Y-53584689D01*
D11*
X194856021Y-78177709D02*
X194757930Y-77981527D01*
X194704676Y-77875025D01*
D10*
X127433313Y-73940141D02*
X127433313Y-73788799D01*
X194931693Y-83626005D02*
X195007364Y-83550337D01*
X194931693Y-83777350D02*
X194931693Y-83626005D01*
X135378748Y-61605797D02*
X135454420Y-61605797D01*
X124482151Y-93614557D02*
X124482151Y-93538885D01*
X132049235Y-65919033D02*
X132200575Y-65767691D01*
X160123111Y-53584689D02*
X160198783Y-53660359D01*
X124028126Y-126380029D02*
X124028126Y-126228684D01*
X195385716Y-79464111D02*
X195385716Y-79237100D01*
X184262107Y-106554267D02*
X184489114Y-106327254D01*
X192964247Y-87939244D02*
X192964247Y-87787905D01*
X189105037Y-120780388D02*
X189559059Y-120326356D01*
X163755310Y-54038712D02*
X164133666Y-54038712D01*
X189634732Y-123050513D02*
X189937419Y-123201848D01*
X170868364Y-62362503D02*
X171625076Y-62740859D01*
X187818639Y-121158739D02*
X187894301Y-121083067D01*
X120395927Y-126153012D02*
X119790559Y-126228684D01*
X172760138Y-63497566D02*
X172911482Y-63573239D01*
X131443868Y-66827084D02*
X131595210Y-66675742D01*
D11*
X191753522Y-142497911D02*
X191694666Y-142733326D01*
X191677850Y-142800599D01*
D10*
X124103798Y-125320629D02*
X123876784Y-125320629D01*
X120471596Y-126077341D02*
X120395927Y-126153012D01*
D11*
X185548514Y-76739962D02*
X185633640Y-76654832D01*
X185699849Y-76588622D01*
D10*
X188121318Y-77421000D02*
X187969974Y-77421000D01*
X191602177Y-90285041D02*
X191602177Y-90133697D01*
X122060684Y-112380923D02*
X122212026Y-112380923D01*
X191375162Y-90512052D02*
X191602177Y-90285041D01*
D11*
X182824357Y-66221717D02*
X182852732Y-66250090D01*
X182975701Y-66373059D01*
X123725442Y-113061958D02*
X123865974Y-113155647D01*
X123952455Y-113213301D01*
D10*
X131065512Y-67356780D02*
X131292526Y-67129767D01*
X129173743Y-120780388D02*
X129325085Y-120780388D01*
X117369093Y-125547645D02*
X117520434Y-125547645D01*
D11*
X130611490Y-68037816D02*
X130668241Y-67981064D01*
X130762830Y-67886475D01*
D10*
X169884646Y-57368230D02*
X169884646Y-60016709D01*
X123120077Y-96187364D02*
X123195746Y-96111693D01*
X165117385Y-54265725D02*
X165949763Y-54341397D01*
X120471596Y-81582897D02*
X120471596Y-79842467D01*
X126676604Y-114197020D02*
X126903618Y-114348364D01*
X182824357Y-66146045D02*
X182824357Y-66221717D01*
X131746552Y-79539783D02*
X131670879Y-79388439D01*
X183429724Y-107159634D02*
X183656739Y-106932621D01*
D11*
X143853885Y-62362503D02*
X143948472Y-62267916D01*
X144232237Y-61984150D01*
D10*
X129325085Y-76739962D02*
X129022401Y-76512949D01*
X155431523Y-53584689D02*
X155507190Y-53509017D01*
X118504155Y-125093621D02*
X118882510Y-124866606D01*
X195461388Y-81961247D02*
X195461388Y-81507225D01*
X116612385Y-126909724D02*
X116461044Y-126909724D01*
D11*
X177678739Y-60319392D02*
X177722883Y-60363533D01*
X177830084Y-60470734D01*
X116309702Y-126304357D02*
X116349050Y-126225657D01*
X116385371Y-126153012D01*
D10*
X190845466Y-128044787D02*
X190921138Y-128120458D01*
X191223826Y-76361608D02*
X191148155Y-76437280D01*
D11*
X123422760Y-95052302D02*
X123552481Y-94792859D01*
X123725442Y-94446935D01*
D10*
X184791802Y-106100243D02*
X184867475Y-106100243D01*
X127887338Y-72880750D02*
X127887338Y-72653736D01*
X189483397Y-93917239D02*
X189120168Y-93675095D01*
X192510224Y-126153012D02*
X192434551Y-126077341D01*
X158534025Y-53509017D02*
X159290732Y-53509017D01*
D11*
X138708268Y-61076100D02*
X138878525Y-61246359D01*
X138935280Y-61303114D01*
D10*
X190618459Y-127061058D02*
X190618459Y-127288075D01*
X120698610Y-126077341D02*
X120471596Y-126077341D01*
X191450834Y-130087895D02*
X191526505Y-130163567D01*
X121152635Y-83928689D02*
X121001294Y-83701677D01*
D11*
X191148155Y-129028504D02*
X191227112Y-129186424D01*
X191299489Y-129331183D01*
D10*
X144913276Y-60622076D02*
X144913276Y-58957317D01*
X190921138Y-128120458D02*
X190921138Y-128271794D01*
X117596107Y-126834051D02*
X117444765Y-126834051D01*
D11*
X193266935Y-87258209D02*
X193361103Y-87164039D01*
X193418280Y-87106864D01*
D10*
X121001294Y-113288974D02*
X120244585Y-112910618D01*
X125087518Y-113667325D02*
X125465871Y-113742996D01*
X131746552Y-77950693D02*
X131519538Y-77875025D01*
D11*
X127508985Y-114575371D02*
X127635101Y-114600597D01*
X127887338Y-114651044D01*
D10*
X190769795Y-125774662D02*
X190694122Y-125698989D01*
D11*
X127508985Y-104132801D02*
X127203691Y-103861430D01*
X126827946Y-103527434D01*
D10*
X175332951Y-61832809D02*
X175559959Y-61605797D01*
D11*
X132427588Y-116467145D02*
X132482071Y-116412663D01*
X132578930Y-116315802D01*
D10*
X123347088Y-95430658D02*
X123422760Y-95052302D01*
X124557821Y-115483426D02*
X124406482Y-115332083D01*
X131216854Y-116013121D02*
X131368196Y-116013121D01*
X125465871Y-113742996D02*
X126071240Y-114045681D01*
X190240099Y-123353192D02*
X190542787Y-123504537D01*
X184791802Y-69097209D02*
X184791802Y-69248551D01*
X116461044Y-126909724D02*
X116309702Y-126607036D01*
D11*
X192964247Y-87787905D02*
X193012403Y-87739750D01*
X193115591Y-87636560D01*
D10*
X131292526Y-67054095D02*
X131443868Y-66902753D01*
X137724545Y-60546405D02*
X138102901Y-60622076D01*
X128265692Y-77496670D02*
X128417034Y-77648011D01*
X127508985Y-75680570D02*
X127433313Y-75680570D01*
X187515951Y-75150875D02*
X187515951Y-74696850D01*
D11*
X183278389Y-66902753D02*
X183364866Y-66989235D01*
X183429724Y-67054095D01*
D10*
X182673022Y-65919033D02*
X182673022Y-65994705D01*
X193418280Y-126304357D02*
X193191263Y-126304357D01*
X129022401Y-115105075D02*
X129476427Y-115332083D01*
X122893063Y-125547645D02*
X122590379Y-125698989D01*
X144913276Y-56233167D02*
X144913276Y-56081825D01*
X191450834Y-129860879D02*
X191450834Y-130087895D01*
X126449593Y-92630837D02*
X126071240Y-92252483D01*
D11*
X194704676Y-77875025D02*
X194353350Y-77523694D01*
X193947975Y-77118316D01*
X187667294Y-103905790D02*
X187852070Y-103721012D01*
X188045646Y-103527434D01*
X122893063Y-130087895D02*
X122948822Y-129976381D01*
X123044405Y-129785216D01*
D10*
X137043510Y-60319392D02*
X137270523Y-60319392D01*
X140902721Y-62892199D02*
X140978393Y-62892199D01*
X187213272Y-104208474D02*
X187288934Y-104208474D01*
X187364607Y-74394166D02*
X187364607Y-74091483D01*
X120698610Y-82490943D02*
X120622938Y-82415275D01*
X192585896Y-88468939D02*
X192737239Y-88317600D01*
D11*
X121379648Y-84534057D02*
X121310112Y-84429754D01*
X121228305Y-84307045D01*
X186683576Y-72502397D02*
X186631586Y-72242457D01*
X186607905Y-72124041D01*
D10*
X129703438Y-78556060D02*
X129930450Y-78631733D01*
X120925621Y-83474666D02*
X120925621Y-83323322D01*
X189256380Y-102392371D02*
X189256380Y-102316700D01*
D11*
X169960318Y-61000430D02*
X170020855Y-61121504D01*
X170187329Y-61454455D01*
X123725442Y-94446935D02*
X123791655Y-94380723D01*
X123876784Y-94295595D01*
D10*
X124482151Y-113364642D02*
X125087518Y-113667325D01*
D11*
X117520434Y-125547645D02*
X117860260Y-125362287D01*
X118352813Y-125093621D01*
D10*
X124028126Y-122823496D02*
X124179468Y-122823496D01*
D11*
X123422760Y-99138529D02*
X123393331Y-99109099D01*
X123347088Y-99062857D01*
D10*
X187591622Y-103905790D02*
X187667294Y-103905790D01*
D13*
X185170154Y-69778247D02*
X185624176Y-70232272D01*
D10*
X190921138Y-99592551D02*
X190996810Y-99516879D01*
X183959420Y-106781282D02*
X184186435Y-106554267D01*
D11*
X130762830Y-79161427D02*
X131009582Y-79260130D01*
X131141184Y-79312772D01*
X158458353Y-53433347D02*
X158503755Y-53478748D01*
X158534025Y-53509017D01*
X128719718Y-70837636D02*
X128770164Y-70787191D01*
X128871059Y-70686295D01*
D10*
X191375162Y-97852122D02*
X191375162Y-96414377D01*
X191299489Y-129331183D02*
X191299489Y-129558200D01*
D11*
X128038680Y-75983253D02*
X127735996Y-75907582D01*
D10*
X183656739Y-79842467D02*
X183505396Y-79993807D01*
X122893063Y-112759273D02*
X123044405Y-112759273D01*
X194099309Y-85593447D02*
X194477669Y-84912412D01*
D11*
X194477669Y-84761068D02*
X194651080Y-84414246D01*
X194856021Y-84004361D01*
D10*
X183051372Y-80220818D02*
X182975701Y-80145150D01*
X128871059Y-115105075D02*
X129022401Y-115105075D01*
X180251552Y-62589517D02*
X180251552Y-62665187D01*
X174349224Y-62589517D02*
X174651912Y-62438176D01*
X187213272Y-121310083D02*
X187364607Y-121310083D01*
X164587689Y-54114384D02*
X164663361Y-54190055D01*
D11*
X119033852Y-124866606D02*
X119230035Y-124748898D01*
X119412205Y-124639599D01*
D10*
X141886440Y-63497566D02*
X142113455Y-63270555D01*
X123422760Y-114802387D02*
X123271419Y-114651044D01*
X125163188Y-76134595D02*
X125238860Y-76210266D01*
D11*
X122817393Y-133190404D02*
X122870033Y-133137761D01*
X122893063Y-133114732D01*
D10*
X189559059Y-120326356D02*
X189559059Y-120023676D01*
X182067655Y-65086655D02*
X182067655Y-65162324D01*
X191829184Y-141589864D02*
X191829184Y-142422239D01*
X128417034Y-77648011D02*
X128946729Y-77950693D01*
X190467114Y-126607036D02*
X190467114Y-126758379D01*
X129022401Y-76512949D02*
X128719718Y-76437280D01*
X186759239Y-76058924D02*
X187364607Y-75453559D01*
X159366405Y-53584689D02*
X160123111Y-53584689D01*
X190391443Y-126304357D02*
X190391443Y-126531364D01*
X125238860Y-76210266D02*
X125844226Y-76361608D01*
X187288934Y-122142458D02*
X187440279Y-122142458D01*
D11*
X123574101Y-125471973D02*
X123116261Y-125522847D01*
X122893063Y-125547645D01*
X178132772Y-60622076D02*
X178235957Y-60725263D01*
X178359779Y-60849087D01*
X186078209Y-76437280D02*
X186161200Y-76354285D01*
X186229545Y-76285937D01*
D10*
X123801115Y-127136731D02*
X123801115Y-126985396D01*
X126752276Y-103527434D02*
X126298251Y-103073412D01*
X185775521Y-119796661D02*
X185699849Y-119872333D01*
D11*
X169960318Y-57292559D02*
X169903564Y-57349313D01*
X169884646Y-57368230D01*
D10*
X141659428Y-63497566D02*
X141886440Y-63497566D01*
D11*
X191677850Y-142800599D02*
X191602177Y-142876266D01*
X191526505Y-142951933D01*
D10*
X127584655Y-73637457D02*
X127735996Y-73032092D01*
X116385371Y-126153012D02*
X116612385Y-125925996D01*
X194629005Y-125698989D02*
X194629005Y-126228684D01*
X124557821Y-122596481D02*
X124709163Y-122596481D01*
X192737239Y-88317600D02*
X192737239Y-88166255D01*
X191072482Y-125774662D02*
X190769795Y-125774662D01*
D11*
X168219888Y-54871092D02*
X168320785Y-54921540D01*
X168522572Y-55022434D01*
D10*
X123952455Y-113213301D02*
X124103798Y-113213301D01*
X194477669Y-84912412D02*
X194477669Y-84761068D01*
X146275351Y-54946762D02*
X146502362Y-54946762D01*
X120698610Y-79010087D02*
X120698610Y-78631733D01*
X188348334Y-120931723D02*
X188802357Y-120931723D01*
X137270523Y-60319392D02*
X137724545Y-60546405D01*
X161863541Y-53811700D02*
X162620247Y-53811700D01*
X127281971Y-114424037D02*
X127508985Y-114575371D01*
X190694122Y-125698989D02*
X190391443Y-125698989D01*
D11*
X128492705Y-114878059D02*
X128772967Y-115046219D01*
X128871059Y-115105075D01*
D10*
X195461388Y-79918139D02*
X195461388Y-79539783D01*
X189786076Y-92857850D02*
X189786076Y-92782177D01*
D11*
X119790559Y-126228684D02*
X119596843Y-126325543D01*
X119487876Y-126380029D01*
D10*
X132578930Y-107310977D02*
X132351917Y-107083961D01*
X191602177Y-90133697D02*
X191829184Y-89906685D01*
X131141184Y-79312772D02*
X131519538Y-79615455D01*
X190618459Y-76512949D02*
X190315771Y-76512949D01*
D11*
X123271419Y-114651044D02*
X123124528Y-114602081D01*
X123044405Y-114575371D01*
D10*
X131746552Y-79085755D02*
X131822221Y-79010087D01*
X123347088Y-99062857D02*
X123347088Y-98911512D01*
X130006121Y-120553371D02*
X130157463Y-120477700D01*
D11*
X189029364Y-76966975D02*
X188632094Y-77165611D01*
X188121318Y-77421000D01*
X193266935Y-124866606D02*
X193480827Y-124920082D01*
X193569614Y-124942278D01*
X123725442Y-127212403D02*
X123741660Y-127196187D01*
X123801115Y-127136731D01*
D10*
X186078209Y-70913309D02*
X185851193Y-70686295D01*
D11*
X188802357Y-120931723D02*
X188948355Y-120858726D01*
X189105037Y-120780388D01*
D10*
X150588588Y-54038712D02*
X150966940Y-54038712D01*
X195083037Y-83171983D02*
X195234372Y-82869299D01*
X195234372Y-82869299D02*
X195234372Y-82642287D01*
X192056201Y-89376989D02*
X192283217Y-89149978D01*
X184186435Y-106554267D02*
X184262107Y-106554267D01*
X138935280Y-61303114D02*
X139010952Y-61303114D01*
X182975701Y-80145150D02*
X183051372Y-80069478D01*
X192737239Y-124639599D02*
X192888584Y-124639599D01*
X130308805Y-68491842D02*
X130460148Y-68340500D01*
D11*
X123044405Y-112759273D02*
X123058723Y-112767455D01*
X123574101Y-113061958D01*
X140600038Y-62589517D02*
X140760282Y-62749761D01*
X140902721Y-62892199D01*
D10*
X191072482Y-128801489D02*
X191148155Y-128877161D01*
X126298251Y-103073412D02*
X126222580Y-103073412D01*
X164209337Y-54114384D02*
X164587689Y-54114384D01*
X121001294Y-83550337D02*
X120925621Y-83474666D01*
D11*
X126146909Y-121915450D02*
X126395691Y-121865692D01*
X126525265Y-121839779D01*
X122212026Y-112380923D02*
X122541270Y-112563834D01*
X122893063Y-112759273D01*
D10*
X149756210Y-54190055D02*
X150512917Y-54114384D01*
D11*
X187364607Y-75453559D02*
X187421043Y-75340692D01*
X187515951Y-75150875D01*
D10*
X191375162Y-125925996D02*
X191072482Y-125774662D01*
D11*
X127433313Y-75680570D02*
X127345604Y-75563624D01*
X127206302Y-75377886D01*
D10*
X121228305Y-84307045D02*
X121152635Y-83928689D01*
D11*
X191148155Y-90966076D02*
X191265571Y-90731239D01*
X191375162Y-90512052D01*
D10*
X136740827Y-60470734D02*
X137043510Y-60319392D01*
X156263900Y-53433347D02*
X158458353Y-53433347D01*
M02*
