%TF.GenerationSoftware,KiCad,Pcbnew,9.0.1*%
%TF.CreationDate,2026-03-19T22:20:21-04:00*%
%TF.ProjectId,HammerHacks II Badge PCB,48616d6d-6572-4486-9163-6b7320494920,rev?*%
%TF.SameCoordinates,Original*%
%TF.FileFunction,Soldermask,Top*%
%TF.FilePolarity,Negative*%
%FSLAX46Y46*%
G04 Gerber Fmt 4.6, Leading zero omitted, Abs format (unit mm)*
G04 Created by KiCad (PCBNEW 9.0.1) date 2026-03-19 22:20:21*
%MOMM*%
%LPD*%
G01*
G04 APERTURE LIST*
%ADD10C,0.000000*%
%ADD11C,0.589627*%
%ADD12O,18.000000X9.000000*%
%ADD13C,1.400000*%
%ADD14O,1.400000X1.400000*%
%ADD15R,1.800000X1.800000*%
%ADD16C,1.800000*%
G04 APERTURE END LIST*
D10*
G36*
X165990277Y-115418176D02*
G01*
X166045672Y-115425100D01*
X166105973Y-115440148D01*
X166170982Y-115463230D01*
X166240494Y-115494244D01*
X166314312Y-115533098D01*
X166392234Y-115579692D01*
X166474057Y-115633931D01*
X166559585Y-115695722D01*
X166648611Y-115764963D01*
X166740941Y-115841561D01*
X166836369Y-115925417D01*
X166934695Y-116016438D01*
X167002166Y-116083085D01*
X167064816Y-116151549D01*
X167122714Y-116221971D01*
X167175920Y-116294497D01*
X167224502Y-116369271D01*
X167268521Y-116446440D01*
X167308043Y-116526143D01*
X167343133Y-116608533D01*
X167373853Y-116693747D01*
X167400269Y-116781934D01*
X167422445Y-116873236D01*
X167440445Y-116967798D01*
X167454332Y-117065765D01*
X167464173Y-117167283D01*
X167470028Y-117272489D01*
X167471968Y-117381540D01*
X167471448Y-117448514D01*
X167468904Y-117514707D01*
X167464398Y-117580014D01*
X167457994Y-117644328D01*
X167449755Y-117707541D01*
X167439743Y-117769546D01*
X167428024Y-117830239D01*
X167414661Y-117889512D01*
X167399713Y-117947261D01*
X167383247Y-118003376D01*
X167365327Y-118057752D01*
X167346013Y-118110284D01*
X167325370Y-118160865D01*
X167303462Y-118209386D01*
X167280350Y-118255746D01*
X167256100Y-118299833D01*
X167230773Y-118341542D01*
X167204434Y-118380769D01*
X167177145Y-118417407D01*
X167148969Y-118451347D01*
X167119970Y-118482485D01*
X167090211Y-118510712D01*
X167059757Y-118535925D01*
X167028667Y-118558016D01*
X166997009Y-118576880D01*
X166964842Y-118592408D01*
X166932233Y-118604494D01*
X166899243Y-118613032D01*
X166865936Y-118617918D01*
X166832375Y-118619043D01*
X166798623Y-118616301D01*
X166764742Y-118609585D01*
X166745020Y-118603759D01*
X166725945Y-118596564D01*
X166707527Y-118588018D01*
X166689768Y-118578137D01*
X166656255Y-118554426D01*
X166625458Y-118525551D01*
X166597423Y-118491633D01*
X166572198Y-118452793D01*
X166549832Y-118409148D01*
X166530373Y-118360823D01*
X166513869Y-118307938D01*
X166500370Y-118250609D01*
X166489922Y-118188961D01*
X166482575Y-118123113D01*
X166478374Y-118053185D01*
X166477370Y-117979297D01*
X166479612Y-117901571D01*
X166485144Y-117820127D01*
X166492355Y-117693667D01*
X166493475Y-117567317D01*
X166488589Y-117441323D01*
X166477778Y-117315922D01*
X166461119Y-117191360D01*
X166438694Y-117067872D01*
X166410584Y-116945699D01*
X166376867Y-116825086D01*
X166337627Y-116706270D01*
X166292940Y-116589494D01*
X166242889Y-116474999D01*
X166187555Y-116363026D01*
X166127015Y-116253815D01*
X166061354Y-116147607D01*
X165990648Y-116044644D01*
X165914980Y-115945167D01*
X165884780Y-115905782D01*
X165857907Y-115867795D01*
X165834343Y-115831187D01*
X165823796Y-115813396D01*
X165814070Y-115795944D01*
X165805163Y-115778831D01*
X165797075Y-115762052D01*
X165789801Y-115745608D01*
X165783340Y-115729493D01*
X165777690Y-115713708D01*
X165772848Y-115698251D01*
X165768814Y-115683117D01*
X165765588Y-115668308D01*
X165763160Y-115653821D01*
X165761537Y-115639653D01*
X165760711Y-115625802D01*
X165760683Y-115612265D01*
X165761450Y-115599042D01*
X165763009Y-115586131D01*
X165765359Y-115573527D01*
X165768499Y-115561231D01*
X165772426Y-115549242D01*
X165777138Y-115537555D01*
X165782632Y-115526169D01*
X165788909Y-115515082D01*
X165795962Y-115504292D01*
X165803795Y-115493797D01*
X165812401Y-115483596D01*
X165821782Y-115473685D01*
X165837936Y-115459340D01*
X165855541Y-115447136D01*
X165874576Y-115437059D01*
X165895012Y-115429099D01*
X165916824Y-115423242D01*
X165939989Y-115419478D01*
X165964482Y-115417794D01*
X165990277Y-115418176D01*
G37*
G36*
X152640587Y-90794066D02*
G01*
X152689727Y-90798024D01*
X152737294Y-90805514D01*
X152784472Y-90816763D01*
X152832445Y-90831996D01*
X152882394Y-90851443D01*
X152935503Y-90875328D01*
X152992953Y-90903879D01*
X153055927Y-90937322D01*
X153203179Y-91019793D01*
X153379085Y-91116494D01*
X153566071Y-91211467D01*
X153763168Y-91304417D01*
X153969401Y-91395042D01*
X154405391Y-91568118D01*
X154866264Y-91728299D01*
X155344246Y-91873186D01*
X155831558Y-92000382D01*
X156320426Y-92107489D01*
X156563014Y-92152760D01*
X156803074Y-92192111D01*
X156942393Y-92210389D01*
X157097492Y-92225839D01*
X157445566Y-92248358D01*
X157828375Y-92259861D01*
X158226993Y-92260541D01*
X158622502Y-92250593D01*
X158995979Y-92230213D01*
X159328500Y-92199595D01*
X159473490Y-92180505D01*
X159601145Y-92158931D01*
X159938278Y-92083307D01*
X160331336Y-91976967D01*
X160761073Y-91846520D01*
X161208241Y-91698577D01*
X161653594Y-91539746D01*
X162077888Y-91376639D01*
X162461873Y-91215865D01*
X162786306Y-91064033D01*
X162882807Y-91017764D01*
X162925075Y-90998664D01*
X162964210Y-90982122D01*
X163000848Y-90968044D01*
X163035632Y-90956332D01*
X163069201Y-90946887D01*
X163102194Y-90939612D01*
X163135253Y-90934412D01*
X163169017Y-90931188D01*
X163204124Y-90929844D01*
X163241217Y-90930280D01*
X163280935Y-90932403D01*
X163323917Y-90936113D01*
X163370802Y-90941313D01*
X163422232Y-90947907D01*
X163495156Y-90956159D01*
X163575338Y-90964151D01*
X163660186Y-90971625D01*
X163747106Y-90978321D01*
X163833511Y-90983979D01*
X163916803Y-90988344D01*
X163994392Y-90991151D01*
X164063688Y-90992146D01*
X164378886Y-90997675D01*
X164434183Y-91202278D01*
X164469608Y-91330121D01*
X164481521Y-91382287D01*
X164488445Y-91427703D01*
X164489772Y-91448137D01*
X164489535Y-91467190D01*
X164487630Y-91484966D01*
X164483951Y-91501567D01*
X164478394Y-91517094D01*
X164470851Y-91531650D01*
X164461218Y-91545337D01*
X164449390Y-91558258D01*
X164435263Y-91570514D01*
X164418728Y-91582209D01*
X164399683Y-91593444D01*
X164378021Y-91604322D01*
X164326428Y-91625413D01*
X164263106Y-91646302D01*
X164187212Y-91667807D01*
X164097902Y-91690746D01*
X163875676Y-91744197D01*
X163486538Y-91827316D01*
X162949261Y-91930136D01*
X161627813Y-92161695D01*
X160306366Y-92372519D01*
X159769091Y-92449419D01*
X159379954Y-92496248D01*
X159059766Y-92521651D01*
X158694087Y-92539795D01*
X158298079Y-92550682D01*
X157886910Y-92554311D01*
X157475743Y-92550682D01*
X157079736Y-92539795D01*
X156714057Y-92521651D01*
X156393869Y-92496248D01*
X155691433Y-92413139D01*
X154885445Y-92295880D01*
X154036686Y-92155938D01*
X153205943Y-92004788D01*
X152453999Y-91853896D01*
X151841640Y-91714733D01*
X151606800Y-91653134D01*
X151429650Y-91598769D01*
X151317788Y-91553071D01*
X151288713Y-91533920D01*
X151278811Y-91517475D01*
X151280065Y-91497505D01*
X151283650Y-91467622D01*
X151289309Y-91429312D01*
X151296784Y-91384069D01*
X151316138Y-91278743D01*
X151339640Y-91163568D01*
X151400468Y-90887079D01*
X151682486Y-90881548D01*
X151746640Y-90880544D01*
X151817274Y-90877660D01*
X151892057Y-90873092D01*
X151968653Y-90867032D01*
X152044731Y-90859678D01*
X152117958Y-90851222D01*
X152186000Y-90841857D01*
X152246525Y-90831781D01*
X152404664Y-90809013D01*
X152471915Y-90801113D01*
X152532865Y-90795837D01*
X152588695Y-90793412D01*
X152640587Y-90794066D01*
G37*
G36*
X158416133Y-87008673D02*
G01*
X158440121Y-87009689D01*
X158462392Y-87011296D01*
X158482718Y-87013518D01*
X158500878Y-87016377D01*
X158563682Y-87028557D01*
X158628460Y-87043684D01*
X158694668Y-87061517D01*
X158761755Y-87081817D01*
X158829174Y-87104342D01*
X158896376Y-87128850D01*
X158962817Y-87155101D01*
X159027944Y-87182855D01*
X159091213Y-87211872D01*
X159152073Y-87241908D01*
X159209978Y-87272727D01*
X159264380Y-87304085D01*
X159314731Y-87335741D01*
X159360482Y-87367455D01*
X159401086Y-87398986D01*
X159435995Y-87430095D01*
X159468961Y-87463300D01*
X159497828Y-87493034D01*
X159522740Y-87519680D01*
X159543852Y-87543620D01*
X159553028Y-87554694D01*
X159561312Y-87565235D01*
X159568717Y-87575290D01*
X159575266Y-87584908D01*
X159580977Y-87594134D01*
X159585868Y-87603019D01*
X159589958Y-87611609D01*
X159593265Y-87619951D01*
X159595808Y-87628095D01*
X159597607Y-87636088D01*
X159598679Y-87643977D01*
X159599043Y-87651808D01*
X159598718Y-87659633D01*
X159597723Y-87667498D01*
X159596076Y-87675447D01*
X159593796Y-87683533D01*
X159590903Y-87691801D01*
X159587413Y-87700300D01*
X159583345Y-87709077D01*
X159578721Y-87718179D01*
X159567870Y-87737551D01*
X159555010Y-87758802D01*
X159547348Y-87769488D01*
X159543325Y-87774072D01*
X159539148Y-87778140D01*
X159534800Y-87781691D01*
X159530266Y-87784716D01*
X159525527Y-87787214D01*
X159520563Y-87789177D01*
X159515360Y-87790599D01*
X159509897Y-87791477D01*
X159504159Y-87791805D01*
X159498126Y-87791578D01*
X159491783Y-87790792D01*
X159485110Y-87789438D01*
X159470708Y-87785015D01*
X159454778Y-87778266D01*
X159437180Y-87769152D01*
X159417771Y-87757632D01*
X159396412Y-87743660D01*
X159372961Y-87727200D01*
X159347277Y-87708206D01*
X159319217Y-87686639D01*
X159288644Y-87662458D01*
X159233726Y-87621154D01*
X159177399Y-87582273D01*
X159119710Y-87545850D01*
X159060710Y-87511918D01*
X159000446Y-87480509D01*
X158938970Y-87451659D01*
X158876333Y-87425397D01*
X158812584Y-87401758D01*
X158747772Y-87380776D01*
X158681946Y-87362485D01*
X158615159Y-87346917D01*
X158547457Y-87334104D01*
X158478893Y-87324081D01*
X158409514Y-87316881D01*
X158339372Y-87312537D01*
X158268519Y-87311080D01*
X158202207Y-87312970D01*
X158133321Y-87318496D01*
X158062477Y-87327444D01*
X157990287Y-87339594D01*
X157917367Y-87354733D01*
X157844330Y-87372646D01*
X157771791Y-87393117D01*
X157700365Y-87415927D01*
X157630666Y-87440862D01*
X157563308Y-87467708D01*
X157498905Y-87496246D01*
X157438071Y-87526263D01*
X157381423Y-87557542D01*
X157329572Y-87589867D01*
X157283135Y-87623021D01*
X157242724Y-87656790D01*
X157224246Y-87674861D01*
X157207005Y-87690850D01*
X157198819Y-87698075D01*
X157190908Y-87704796D01*
X157183261Y-87711016D01*
X157175867Y-87716740D01*
X157168713Y-87721975D01*
X157161789Y-87726726D01*
X157155082Y-87730997D01*
X157148582Y-87734794D01*
X157142276Y-87738122D01*
X157136155Y-87740985D01*
X157130207Y-87743392D01*
X157124418Y-87745344D01*
X157118780Y-87746846D01*
X157113279Y-87747908D01*
X157107905Y-87748530D01*
X157102645Y-87748719D01*
X157097491Y-87748482D01*
X157092428Y-87747822D01*
X157087444Y-87746744D01*
X157082534Y-87745254D01*
X157077677Y-87743358D01*
X157072870Y-87741061D01*
X157068098Y-87738366D01*
X157063350Y-87735281D01*
X157058614Y-87731810D01*
X157053879Y-87727958D01*
X157049134Y-87723730D01*
X157044366Y-87719131D01*
X157035335Y-87709627D01*
X157027375Y-87700215D01*
X157020494Y-87690851D01*
X157017461Y-87686176D01*
X157014701Y-87681496D01*
X157012215Y-87676809D01*
X157010005Y-87672109D01*
X157008068Y-87667389D01*
X157006411Y-87662647D01*
X157005031Y-87657873D01*
X157003930Y-87653067D01*
X157003108Y-87648221D01*
X157002569Y-87643331D01*
X157002313Y-87638389D01*
X157002339Y-87633394D01*
X157002649Y-87628338D01*
X157003245Y-87623217D01*
X157004127Y-87618027D01*
X157005297Y-87612759D01*
X157006755Y-87607410D01*
X157008502Y-87601975D01*
X157010541Y-87596450D01*
X157012870Y-87590829D01*
X157018409Y-87579273D01*
X157025127Y-87567271D01*
X157033032Y-87554778D01*
X157055452Y-87527129D01*
X157089927Y-87495646D01*
X157135094Y-87461009D01*
X157189593Y-87423897D01*
X157252061Y-87384991D01*
X157321138Y-87344973D01*
X157395461Y-87304524D01*
X157473669Y-87264324D01*
X157554403Y-87225054D01*
X157636297Y-87187395D01*
X157717993Y-87152025D01*
X157798127Y-87119629D01*
X157875340Y-87090886D01*
X157948268Y-87066475D01*
X158015551Y-87047079D01*
X158075828Y-87033379D01*
X158131052Y-87025443D01*
X158189264Y-87018767D01*
X158248673Y-87013554D01*
X158307479Y-87010000D01*
X158363898Y-87008308D01*
X158416133Y-87008673D01*
G37*
G36*
X151199752Y-92116247D02*
G01*
X151354155Y-92150636D01*
X151842850Y-92263997D01*
X152398335Y-92381505D01*
X153250874Y-92536339D01*
X154486004Y-92743016D01*
X156189266Y-93016049D01*
X156337243Y-93036400D01*
X156511215Y-93053926D01*
X156922396Y-93080592D01*
X157393325Y-93096241D01*
X157894514Y-93101069D01*
X158396482Y-93095269D01*
X158869744Y-93079036D01*
X159284813Y-93052564D01*
X159612205Y-93016049D01*
X162531935Y-92540486D01*
X162690679Y-92514781D01*
X162864586Y-92484151D01*
X163235600Y-92413301D01*
X163600394Y-92338304D01*
X163914383Y-92269527D01*
X164048426Y-92237990D01*
X164174888Y-92210081D01*
X164290851Y-92186321D01*
X164393402Y-92167225D01*
X164479620Y-92153314D01*
X164515695Y-92148465D01*
X164546593Y-92145106D01*
X164571952Y-92143302D01*
X164591404Y-92143119D01*
X164604588Y-92144620D01*
X164608714Y-92146022D01*
X164611137Y-92147871D01*
X164615344Y-92153033D01*
X164619658Y-92160140D01*
X164624052Y-92169062D01*
X164628504Y-92179668D01*
X164632987Y-92191829D01*
X164637478Y-92205416D01*
X164646389Y-92236348D01*
X164655040Y-92271428D01*
X164663237Y-92309619D01*
X164670788Y-92349883D01*
X164677496Y-92391183D01*
X164681247Y-92419066D01*
X164684181Y-92444720D01*
X164685327Y-92456745D01*
X164686255Y-92468253D01*
X164686958Y-92479257D01*
X164687431Y-92489768D01*
X164687668Y-92499802D01*
X164687667Y-92509373D01*
X164687420Y-92518490D01*
X164686923Y-92527170D01*
X164686171Y-92535424D01*
X164685158Y-92543267D01*
X164683881Y-92550711D01*
X164682333Y-92557767D01*
X164680509Y-92564453D01*
X164678406Y-92570778D01*
X164676015Y-92576757D01*
X164673336Y-92582403D01*
X164670360Y-92587729D01*
X164667085Y-92592748D01*
X164663502Y-92597475D01*
X164659609Y-92601920D01*
X164655400Y-92606098D01*
X164650870Y-92610020D01*
X164646014Y-92613703D01*
X164640827Y-92617159D01*
X164635304Y-92620398D01*
X164629440Y-92623437D01*
X164623230Y-92626288D01*
X164616667Y-92628963D01*
X164223825Y-92777933D01*
X163715570Y-92949778D01*
X163120610Y-93136268D01*
X162467650Y-93329174D01*
X161785401Y-93520265D01*
X161102571Y-93701311D01*
X160447862Y-93864083D01*
X159849985Y-94000351D01*
X159594395Y-94053759D01*
X159379176Y-94094790D01*
X159185601Y-94125063D01*
X158994941Y-94146200D01*
X158788471Y-94159819D01*
X158547461Y-94167541D01*
X158253182Y-94170986D01*
X157886910Y-94171775D01*
X157519236Y-94170976D01*
X157224462Y-94167455D01*
X156983213Y-94159527D01*
X156876607Y-94153386D01*
X156776116Y-94145509D01*
X156679319Y-94135689D01*
X156583794Y-94123713D01*
X156487117Y-94109374D01*
X156386870Y-94092457D01*
X156165971Y-94050056D01*
X155901718Y-93994822D01*
X155324664Y-93864828D01*
X154722403Y-93717987D01*
X154108607Y-93558185D01*
X153496949Y-93389309D01*
X152901103Y-93215251D01*
X152334742Y-93039896D01*
X151811540Y-92867133D01*
X151345169Y-92700850D01*
X151299965Y-92683905D01*
X151259598Y-92668191D01*
X151223847Y-92653512D01*
X151192495Y-92639677D01*
X151178400Y-92633015D01*
X151165323Y-92626490D01*
X151153236Y-92620079D01*
X151142112Y-92613757D01*
X151131923Y-92607499D01*
X151122642Y-92601282D01*
X151114243Y-92595082D01*
X151106697Y-92588872D01*
X151099978Y-92582631D01*
X151094056Y-92576334D01*
X151088906Y-92569954D01*
X151084502Y-92563470D01*
X151080814Y-92556856D01*
X151077815Y-92550089D01*
X151075478Y-92543142D01*
X151073777Y-92535994D01*
X151072683Y-92528620D01*
X151072168Y-92520993D01*
X151072208Y-92513091D01*
X151072773Y-92504889D01*
X151073836Y-92496364D01*
X151075369Y-92487490D01*
X151077346Y-92478244D01*
X151079739Y-92468600D01*
X151085927Y-92443630D01*
X151091922Y-92415030D01*
X151097527Y-92383839D01*
X151102549Y-92351091D01*
X151106794Y-92317826D01*
X151110067Y-92285079D01*
X151112173Y-92253889D01*
X151112918Y-92225289D01*
X151113044Y-92212988D01*
X151113414Y-92201009D01*
X151114012Y-92189420D01*
X151114819Y-92178286D01*
X151115821Y-92167669D01*
X151117001Y-92157635D01*
X151118342Y-92148250D01*
X151119830Y-92139577D01*
X151121448Y-92131682D01*
X151123179Y-92124629D01*
X151125006Y-92118484D01*
X151126915Y-92113310D01*
X151127894Y-92111108D01*
X151128888Y-92109174D01*
X151129894Y-92107514D01*
X151130912Y-92106139D01*
X151131936Y-92105054D01*
X151132966Y-92104271D01*
X151134000Y-92103794D01*
X151135038Y-92103633D01*
X151199752Y-92116247D01*
G37*
D11*
X140127127Y-89392971D02*
G75*
G02*
X139537501Y-89392971I-294813J0D01*
G01*
X139537501Y-89392971D02*
G75*
G02*
X140127127Y-89392971I294813J0D01*
G01*
D10*
G36*
X161235469Y-77552734D02*
G01*
X161241473Y-77553710D01*
X161246660Y-77555290D01*
X161251024Y-77557480D01*
X161254554Y-77560284D01*
X161260193Y-77568374D01*
X161264674Y-77580156D01*
X161268004Y-77595569D01*
X161270192Y-77614545D01*
X161271247Y-77637021D01*
X161271175Y-77662930D01*
X161267686Y-77724795D01*
X161259792Y-77799620D01*
X161247555Y-77886887D01*
X161231041Y-77986077D01*
X161210315Y-78096673D01*
X161172302Y-78273483D01*
X161130425Y-78435179D01*
X161084060Y-78582325D01*
X161059000Y-78650621D01*
X161032585Y-78715491D01*
X161004734Y-78777009D01*
X160975373Y-78835243D01*
X160944422Y-78890267D01*
X160911804Y-78942147D01*
X160877440Y-78990959D01*
X160841251Y-79036772D01*
X160803162Y-79079657D01*
X160763094Y-79119685D01*
X160720967Y-79156925D01*
X160676705Y-79191450D01*
X160630231Y-79223331D01*
X160581463Y-79252636D01*
X160530328Y-79279440D01*
X160476744Y-79303811D01*
X160420636Y-79325823D01*
X160361923Y-79345542D01*
X160300531Y-79363042D01*
X160236380Y-79378395D01*
X160169389Y-79391668D01*
X160099485Y-79402935D01*
X159950620Y-79419732D01*
X159789158Y-79429353D01*
X159687489Y-79433565D01*
X159597916Y-79435573D01*
X159520087Y-79434990D01*
X159485468Y-79433606D01*
X159453656Y-79431426D01*
X159424605Y-79428405D01*
X159398272Y-79424492D01*
X159374615Y-79419641D01*
X159353589Y-79413800D01*
X159335153Y-79406923D01*
X159319259Y-79398961D01*
X159305867Y-79389864D01*
X159294932Y-79379584D01*
X159286413Y-79368074D01*
X159280262Y-79355284D01*
X159276438Y-79341165D01*
X159274899Y-79325670D01*
X159275598Y-79308748D01*
X159278494Y-79290351D01*
X159283542Y-79270433D01*
X159290699Y-79248944D01*
X159299923Y-79225833D01*
X159311168Y-79201054D01*
X159324391Y-79174559D01*
X159339550Y-79146296D01*
X159375498Y-79084281D01*
X159418662Y-79014618D01*
X159469478Y-78939040D01*
X159528135Y-78859978D01*
X159593919Y-78778098D01*
X159666119Y-78694063D01*
X159744023Y-78608537D01*
X159826916Y-78522186D01*
X159914085Y-78435673D01*
X160004820Y-78349661D01*
X160098404Y-78264816D01*
X160194129Y-78181801D01*
X160291278Y-78101282D01*
X160389140Y-78023922D01*
X160487003Y-77950385D01*
X160584152Y-77881335D01*
X160679875Y-77817438D01*
X160773460Y-77759357D01*
X160823152Y-77730329D01*
X160870566Y-77703399D01*
X160915633Y-77678592D01*
X160958277Y-77655932D01*
X160998426Y-77635442D01*
X161036008Y-77617147D01*
X161070948Y-77601072D01*
X161103176Y-77587241D01*
X161132616Y-77575678D01*
X161159197Y-77566407D01*
X161182846Y-77559452D01*
X161203489Y-77554840D01*
X161212661Y-77553419D01*
X161221055Y-77552592D01*
X161228661Y-77552364D01*
X161235469Y-77552734D01*
G37*
G36*
X155132386Y-77479411D02*
G01*
X155138768Y-77480148D01*
X155145761Y-77481586D01*
X155153407Y-77483726D01*
X155161751Y-77486571D01*
X155180708Y-77494392D01*
X155202976Y-77505072D01*
X155228907Y-77518636D01*
X155258846Y-77535107D01*
X155332149Y-77576873D01*
X155406100Y-77622698D01*
X155493723Y-77686086D01*
X155592751Y-77764766D01*
X155700917Y-77856473D01*
X155815952Y-77958936D01*
X155935587Y-78069888D01*
X156057557Y-78187061D01*
X156179590Y-78308187D01*
X156299420Y-78430999D01*
X156414779Y-78553227D01*
X156523398Y-78672604D01*
X156623010Y-78786860D01*
X156711347Y-78893729D01*
X156786139Y-78990944D01*
X156845120Y-79076235D01*
X156886021Y-79147333D01*
X156914882Y-79206048D01*
X156939094Y-79258048D01*
X156958413Y-79303746D01*
X156972597Y-79343554D01*
X156977687Y-79361379D01*
X156981401Y-79377887D01*
X156983711Y-79393130D01*
X156984585Y-79407158D01*
X156983992Y-79420024D01*
X156981904Y-79431778D01*
X156978287Y-79442475D01*
X156973114Y-79452163D01*
X156966354Y-79460895D01*
X156957976Y-79468724D01*
X156947948Y-79475699D01*
X156936242Y-79481874D01*
X156922827Y-79487300D01*
X156907673Y-79492029D01*
X156890747Y-79496110D01*
X156872023Y-79499598D01*
X156829051Y-79504997D01*
X156778513Y-79508638D01*
X156720167Y-79510935D01*
X156653769Y-79512299D01*
X156606925Y-79511338D01*
X156558776Y-79508499D01*
X156459157Y-79497449D01*
X156356121Y-79479676D01*
X156250872Y-79455706D01*
X156144618Y-79426065D01*
X156038569Y-79391281D01*
X155933928Y-79351880D01*
X155831905Y-79308388D01*
X155733703Y-79261332D01*
X155640532Y-79211239D01*
X155553599Y-79158635D01*
X155474109Y-79104045D01*
X155403271Y-79047998D01*
X155371473Y-79019592D01*
X155342291Y-78991019D01*
X155315874Y-78962345D01*
X155292375Y-78933636D01*
X155271945Y-78904957D01*
X155254732Y-78876373D01*
X155240534Y-78842092D01*
X155225129Y-78788750D01*
X155208864Y-78719062D01*
X155192089Y-78635742D01*
X155158403Y-78439056D01*
X155126856Y-78220403D01*
X155100232Y-78001489D01*
X155081320Y-77804026D01*
X155072907Y-77649721D01*
X155073509Y-77595537D01*
X155077779Y-77560284D01*
X155082762Y-77540848D01*
X155087575Y-77524027D01*
X155092566Y-77509847D01*
X155098083Y-77498332D01*
X155101149Y-77493582D01*
X155104476Y-77489508D01*
X155108109Y-77486111D01*
X155112092Y-77483395D01*
X155116468Y-77481365D01*
X155121278Y-77480022D01*
X155126570Y-77479369D01*
X155132386Y-77479411D01*
G37*
D11*
X140110193Y-97899298D02*
G75*
G02*
X139520567Y-97899298I-294813J0D01*
G01*
X139520567Y-97899298D02*
G75*
G02*
X140110193Y-97899298I294813J0D01*
G01*
D10*
G36*
X158368083Y-87840866D02*
G01*
X158438260Y-87850832D01*
X158507889Y-87866010D01*
X158576679Y-87886320D01*
X158644340Y-87911675D01*
X158710582Y-87941996D01*
X158775113Y-87977199D01*
X158837643Y-88017200D01*
X158897884Y-88061915D01*
X158955542Y-88111265D01*
X159010325Y-88165164D01*
X159061949Y-88223527D01*
X159095902Y-88265761D01*
X159123449Y-88303181D01*
X159144683Y-88335752D01*
X159152967Y-88350209D01*
X159159710Y-88363442D01*
X159164925Y-88375445D01*
X159168626Y-88386216D01*
X159170825Y-88395750D01*
X159171533Y-88404042D01*
X159170762Y-88411091D01*
X159168527Y-88416888D01*
X159164839Y-88421433D01*
X159159710Y-88424720D01*
X159153155Y-88426745D01*
X159145183Y-88427504D01*
X159135808Y-88426992D01*
X159125042Y-88425207D01*
X159112899Y-88422143D01*
X159099389Y-88417796D01*
X159068325Y-88405238D01*
X159031945Y-88387499D01*
X158990354Y-88364547D01*
X158943647Y-88336350D01*
X158891926Y-88302870D01*
X158856161Y-88278805D01*
X158822834Y-88257521D01*
X158791334Y-88238876D01*
X158761046Y-88222731D01*
X158731357Y-88208943D01*
X158701649Y-88197371D01*
X158671312Y-88187875D01*
X158639729Y-88180313D01*
X158606286Y-88174546D01*
X158570369Y-88170429D01*
X158531366Y-88167824D01*
X158488658Y-88166589D01*
X158441634Y-88166581D01*
X158389678Y-88167661D01*
X158268519Y-88172521D01*
X158211144Y-88175924D01*
X158157796Y-88179827D01*
X158108116Y-88184326D01*
X158061749Y-88189524D01*
X158018338Y-88195517D01*
X157977524Y-88202407D01*
X157938952Y-88210295D01*
X157902265Y-88219277D01*
X157867105Y-88229455D01*
X157833118Y-88240928D01*
X157799941Y-88253796D01*
X157767223Y-88268158D01*
X157734602Y-88284114D01*
X157701727Y-88301764D01*
X157668235Y-88321207D01*
X157633773Y-88342543D01*
X157598468Y-88365595D01*
X157566783Y-88385900D01*
X157538486Y-88403499D01*
X157525534Y-88411297D01*
X157513341Y-88418432D01*
X157501880Y-88424913D01*
X157491120Y-88430743D01*
X157481033Y-88435926D01*
X157471590Y-88440471D01*
X157462760Y-88444380D01*
X157454515Y-88447659D01*
X157446827Y-88450314D01*
X157439666Y-88452348D01*
X157433003Y-88453768D01*
X157426809Y-88454580D01*
X157421056Y-88454788D01*
X157415712Y-88454396D01*
X157413186Y-88453977D01*
X157410751Y-88453411D01*
X157408405Y-88452697D01*
X157406143Y-88451838D01*
X157403963Y-88450832D01*
X157401859Y-88449681D01*
X157397869Y-88446946D01*
X157394145Y-88443639D01*
X157390657Y-88439763D01*
X157387378Y-88435327D01*
X157384276Y-88430331D01*
X157381324Y-88424785D01*
X157378493Y-88418692D01*
X157375752Y-88412056D01*
X157373074Y-88404883D01*
X157368317Y-88390246D01*
X157365698Y-88375054D01*
X157365165Y-88359349D01*
X157366665Y-88343174D01*
X157370145Y-88326570D01*
X157375552Y-88309583D01*
X157382834Y-88292253D01*
X157391936Y-88274623D01*
X157415392Y-88238634D01*
X157445499Y-88201954D01*
X157481833Y-88164927D01*
X157523968Y-88127891D01*
X157571483Y-88091187D01*
X157623955Y-88055157D01*
X157680960Y-88020137D01*
X157742073Y-87986473D01*
X157806873Y-87954500D01*
X157874935Y-87924563D01*
X157945837Y-87896999D01*
X158019155Y-87872150D01*
X158053303Y-87862768D01*
X158087712Y-87854803D01*
X158122349Y-87848245D01*
X158157175Y-87843083D01*
X158192155Y-87839308D01*
X158227252Y-87836909D01*
X158297650Y-87836198D01*
X158368083Y-87840866D01*
G37*
D11*
X176896707Y-88546843D02*
G75*
G02*
X176307081Y-88546843I-294813J0D01*
G01*
X176307081Y-88546843D02*
G75*
G02*
X176896707Y-88546843I294813J0D01*
G01*
D10*
G36*
X158330768Y-88674608D02*
G01*
X158373363Y-88677627D01*
X158415691Y-88683633D01*
X158457488Y-88692603D01*
X158498488Y-88704512D01*
X158538425Y-88719335D01*
X158577033Y-88737046D01*
X158614049Y-88757622D01*
X158649204Y-88781038D01*
X158666002Y-88793803D01*
X158682235Y-88807267D01*
X158705291Y-88827621D01*
X158725625Y-88846297D01*
X158743303Y-88863479D01*
X158751165Y-88871567D01*
X158758389Y-88879350D01*
X158764982Y-88886850D01*
X158770954Y-88894091D01*
X158776310Y-88901095D01*
X158781059Y-88907886D01*
X158785212Y-88914484D01*
X158788774Y-88920916D01*
X158791756Y-88927203D01*
X158794165Y-88933366D01*
X158796009Y-88939431D01*
X158797298Y-88945418D01*
X158798038Y-88951351D01*
X158798238Y-88957254D01*
X158797908Y-88963147D01*
X158797055Y-88969057D01*
X158795685Y-88975001D01*
X158793811Y-88981008D01*
X158791438Y-88987097D01*
X158788576Y-88993292D01*
X158785232Y-88999616D01*
X158781414Y-89006091D01*
X158777132Y-89012740D01*
X158772392Y-89019587D01*
X158761578Y-89033962D01*
X158749154Y-89047575D01*
X158735305Y-89060773D01*
X158703620Y-89085866D01*
X158667087Y-89109115D01*
X158626269Y-89130396D01*
X158581733Y-89149586D01*
X158534042Y-89166559D01*
X158483760Y-89181190D01*
X158431454Y-89193357D01*
X158377685Y-89202934D01*
X158323020Y-89209795D01*
X158268027Y-89213818D01*
X158213263Y-89214875D01*
X158159295Y-89212846D01*
X158106689Y-89207603D01*
X158056009Y-89199022D01*
X158007820Y-89186982D01*
X157981619Y-89178185D01*
X157957209Y-89168815D01*
X157934590Y-89158897D01*
X157913756Y-89148450D01*
X157894705Y-89137502D01*
X157877440Y-89126076D01*
X157861954Y-89114194D01*
X157848248Y-89101883D01*
X157836318Y-89089164D01*
X157826162Y-89076062D01*
X157817780Y-89062602D01*
X157811166Y-89048805D01*
X157806322Y-89034698D01*
X157803244Y-89020304D01*
X157801930Y-89005647D01*
X157802378Y-88990749D01*
X157804586Y-88975635D01*
X157808552Y-88960329D01*
X157814273Y-88944855D01*
X157821749Y-88929237D01*
X157830975Y-88913500D01*
X157841953Y-88897664D01*
X157854676Y-88881757D01*
X157869146Y-88865801D01*
X157885359Y-88849819D01*
X157903313Y-88833837D01*
X157923007Y-88817878D01*
X157944439Y-88801965D01*
X157967604Y-88786123D01*
X157992503Y-88770376D01*
X158019133Y-88754745D01*
X158047492Y-88739259D01*
X158065783Y-88729561D01*
X158084508Y-88720658D01*
X158123116Y-88705222D01*
X158163054Y-88692921D01*
X158204052Y-88683736D01*
X158245850Y-88677637D01*
X158288174Y-88674604D01*
X158330768Y-88674608D01*
G37*
G36*
X153847197Y-115684172D02*
G01*
X153890186Y-115687058D01*
X153930815Y-115692756D01*
X153950066Y-115696667D01*
X153968513Y-115701289D01*
X153986086Y-115706626D01*
X154002711Y-115712681D01*
X154018317Y-115719456D01*
X154032835Y-115726955D01*
X154046191Y-115735181D01*
X154058317Y-115744137D01*
X154069141Y-115753825D01*
X154078590Y-115764250D01*
X154090058Y-115779307D01*
X154100817Y-115795647D01*
X154120211Y-115831944D01*
X154136760Y-115872642D01*
X154150459Y-115917242D01*
X154161300Y-115965247D01*
X154169273Y-116016160D01*
X154174371Y-116069483D01*
X154176586Y-116124715D01*
X154175911Y-116181361D01*
X154172335Y-116238923D01*
X154165853Y-116296903D01*
X154156456Y-116354802D01*
X154144135Y-116412123D01*
X154128884Y-116468367D01*
X154110693Y-116523041D01*
X154089554Y-116575639D01*
X154072968Y-116613884D01*
X154058116Y-116650829D01*
X154044935Y-116686970D01*
X154033359Y-116722805D01*
X154023326Y-116758834D01*
X154014771Y-116795554D01*
X154007630Y-116833462D01*
X154001836Y-116873056D01*
X153997328Y-116914836D01*
X153994041Y-116959296D01*
X153991910Y-117006937D01*
X153990872Y-117058255D01*
X153991815Y-117173921D01*
X153996353Y-117310269D01*
X154002190Y-117414272D01*
X154011174Y-117526565D01*
X154022856Y-117643610D01*
X154036786Y-117761877D01*
X154052516Y-117877831D01*
X154069596Y-117987938D01*
X154087573Y-118088666D01*
X154106001Y-118176479D01*
X154142493Y-118335810D01*
X154175902Y-118488973D01*
X154221129Y-118702785D01*
X154225732Y-118729425D01*
X154228263Y-118755861D01*
X154228772Y-118782053D01*
X154227310Y-118807956D01*
X154223922Y-118833532D01*
X154218660Y-118858735D01*
X154211574Y-118883525D01*
X154202712Y-118907860D01*
X154192125Y-118931696D01*
X154179859Y-118954992D01*
X154165965Y-118977706D01*
X154150491Y-118999796D01*
X154133488Y-119021219D01*
X154115005Y-119041933D01*
X154095091Y-119061897D01*
X154073792Y-119081069D01*
X154051161Y-119099404D01*
X154027247Y-119116860D01*
X154002097Y-119133399D01*
X153975762Y-119148976D01*
X153948292Y-119163549D01*
X153919733Y-119177076D01*
X153890138Y-119189514D01*
X153859552Y-119200822D01*
X153828027Y-119210958D01*
X153795613Y-119219881D01*
X153762355Y-119227545D01*
X153728308Y-119233909D01*
X153693516Y-119238934D01*
X153658031Y-119242574D01*
X153621903Y-119244790D01*
X153585177Y-119245538D01*
X153567794Y-119244588D01*
X153548642Y-119241790D01*
X153527886Y-119237226D01*
X153505683Y-119230976D01*
X153482196Y-119223119D01*
X153457584Y-119213737D01*
X153432008Y-119202908D01*
X153405630Y-119190714D01*
X153378609Y-119177236D01*
X153351106Y-119162553D01*
X153323283Y-119146746D01*
X153295297Y-119129895D01*
X153267314Y-119112080D01*
X153239489Y-119093382D01*
X153211986Y-119073879D01*
X153184965Y-119053656D01*
X153145778Y-119023685D01*
X153110204Y-118995063D01*
X153077876Y-118967212D01*
X153048421Y-118939556D01*
X153021473Y-118911510D01*
X152996659Y-118882503D01*
X152973614Y-118851956D01*
X152951965Y-118819285D01*
X152931346Y-118783917D01*
X152911384Y-118745274D01*
X152891712Y-118702776D01*
X152871957Y-118655843D01*
X152851755Y-118603899D01*
X152830732Y-118546367D01*
X152784755Y-118412222D01*
X152741955Y-118279167D01*
X152707572Y-118159861D01*
X152693275Y-118103558D01*
X152680770Y-118048522D01*
X152669952Y-117994034D01*
X152660716Y-117939369D01*
X152652957Y-117883803D01*
X152646570Y-117826616D01*
X152641455Y-117767084D01*
X152637502Y-117704483D01*
X152632673Y-117567189D01*
X152631248Y-117408950D01*
X152632213Y-117243398D01*
X152633633Y-117172477D01*
X152635873Y-117108367D01*
X152639078Y-117050267D01*
X152643391Y-116997362D01*
X152648955Y-116948841D01*
X152655919Y-116903894D01*
X152664424Y-116861711D01*
X152674615Y-116821477D01*
X152686637Y-116782384D01*
X152700634Y-116743622D01*
X152716752Y-116704376D01*
X152735135Y-116663838D01*
X152755926Y-116621196D01*
X152779272Y-116575639D01*
X152813164Y-116512261D01*
X152848937Y-116449737D01*
X152886410Y-116388272D01*
X152925411Y-116328077D01*
X152965760Y-116269358D01*
X153007281Y-116212326D01*
X153049799Y-116157187D01*
X153093138Y-116104156D01*
X153137116Y-116053436D01*
X153181560Y-116005238D01*
X153226294Y-115959770D01*
X153271141Y-115917242D01*
X153315923Y-115877862D01*
X153360465Y-115841839D01*
X153404589Y-115809380D01*
X153448118Y-115780697D01*
X153467027Y-115769712D01*
X153486701Y-115759372D01*
X153528051Y-115740640D01*
X153571604Y-115724526D01*
X153616786Y-115711054D01*
X153663030Y-115700249D01*
X153709762Y-115692134D01*
X153756413Y-115686734D01*
X153802417Y-115684071D01*
X153847197Y-115684172D01*
G37*
G36*
X158417523Y-82898857D02*
G01*
X158559810Y-82908696D01*
X158705485Y-82925326D01*
X158853319Y-82948356D01*
X159002082Y-82977398D01*
X159150545Y-83012059D01*
X159297482Y-83051951D01*
X159441662Y-83096682D01*
X159581859Y-83145864D01*
X159716841Y-83199105D01*
X159845380Y-83256014D01*
X159966248Y-83316204D01*
X160078218Y-83379283D01*
X160180060Y-83444861D01*
X160270545Y-83512546D01*
X160348443Y-83581952D01*
X160436175Y-83679852D01*
X160510218Y-83790802D01*
X160570562Y-83914837D01*
X160617201Y-84051988D01*
X160650124Y-84202291D01*
X160669324Y-84365775D01*
X160674794Y-84542477D01*
X160666524Y-84732428D01*
X160644505Y-84935662D01*
X160608733Y-85152212D01*
X160559194Y-85382112D01*
X160495883Y-85625393D01*
X160418791Y-85882092D01*
X160327909Y-86152235D01*
X160223231Y-86435863D01*
X160104746Y-86733007D01*
X159934724Y-87141058D01*
X159736367Y-86965371D01*
X159686290Y-86923728D01*
X159633823Y-86883813D01*
X159578963Y-86845624D01*
X159521714Y-86809164D01*
X159462073Y-86774428D01*
X159400042Y-86741420D01*
X159335621Y-86710139D01*
X159268808Y-86680585D01*
X159199604Y-86652758D01*
X159128008Y-86626657D01*
X159054022Y-86602282D01*
X158977646Y-86579635D01*
X158898879Y-86558713D01*
X158817721Y-86539520D01*
X158734170Y-86522054D01*
X158648230Y-86506313D01*
X158558652Y-86493310D01*
X158470360Y-86484109D01*
X158383050Y-86478793D01*
X158296410Y-86477445D01*
X158210140Y-86480149D01*
X158123924Y-86486987D01*
X158037458Y-86498042D01*
X157950438Y-86513398D01*
X157862554Y-86533136D01*
X157773499Y-86557342D01*
X157682966Y-86586097D01*
X157590649Y-86619484D01*
X157496239Y-86657587D01*
X157399430Y-86700487D01*
X157299914Y-86748269D01*
X157197386Y-86801017D01*
X156783667Y-87010709D01*
X156585309Y-86494978D01*
X156416107Y-86057473D01*
X156273072Y-85677020D01*
X156154743Y-85349031D01*
X156059659Y-85068928D01*
X156020379Y-84945402D01*
X155986360Y-84832128D01*
X155957423Y-84728533D01*
X155933384Y-84634046D01*
X155914060Y-84548092D01*
X155899269Y-84470102D01*
X155888828Y-84399500D01*
X155882554Y-84335712D01*
X155877740Y-84278475D01*
X155874065Y-84227434D01*
X155871733Y-84181871D01*
X155870954Y-84141072D01*
X155871935Y-84104327D01*
X155873151Y-84087249D01*
X155874883Y-84070917D01*
X155877161Y-84055241D01*
X155880007Y-84040131D01*
X155883449Y-84025499D01*
X155887514Y-84011255D01*
X155892224Y-83997309D01*
X155897610Y-83983574D01*
X155903694Y-83969959D01*
X155910505Y-83956373D01*
X155918066Y-83942732D01*
X155926403Y-83928942D01*
X155935545Y-83914915D01*
X155945516Y-83900564D01*
X155968048Y-83870525D01*
X155994209Y-83838113D01*
X156024204Y-83802610D01*
X156058243Y-83763308D01*
X156108148Y-83709700D01*
X156166056Y-83655361D01*
X156231335Y-83600625D01*
X156303357Y-83545821D01*
X156381488Y-83491284D01*
X156465099Y-83437345D01*
X156553557Y-83384334D01*
X156646233Y-83332586D01*
X156742495Y-83282433D01*
X156841714Y-83234204D01*
X156943255Y-83188235D01*
X157046491Y-83144855D01*
X157150791Y-83104397D01*
X157255521Y-83067193D01*
X157360052Y-83033578D01*
X157463752Y-83003878D01*
X157554839Y-82982980D01*
X157655823Y-82963145D01*
X157763315Y-82944903D01*
X157873928Y-82928787D01*
X157984277Y-82915326D01*
X158090971Y-82905053D01*
X158190627Y-82898500D01*
X158279851Y-82896199D01*
X158417523Y-82898857D01*
G37*
G36*
X162507825Y-115104861D02*
G01*
X162565445Y-115113885D01*
X162626036Y-115129044D01*
X162689301Y-115150227D01*
X162754944Y-115177321D01*
X162822665Y-115210211D01*
X162892171Y-115248789D01*
X162963162Y-115292938D01*
X163035342Y-115342551D01*
X163108411Y-115397510D01*
X163182076Y-115457707D01*
X163256038Y-115523027D01*
X163327327Y-115593565D01*
X163395121Y-115671275D01*
X163459269Y-115755747D01*
X163519620Y-115846571D01*
X163576018Y-115943339D01*
X163628314Y-116045638D01*
X163676352Y-116153063D01*
X163719982Y-116265201D01*
X163759051Y-116381641D01*
X163793406Y-116501980D01*
X163822893Y-116625803D01*
X163847362Y-116752701D01*
X163866658Y-116882266D01*
X163880631Y-117014087D01*
X163889126Y-117147756D01*
X163891992Y-117282858D01*
X163887982Y-117343416D01*
X163876359Y-117413202D01*
X163857733Y-117490906D01*
X163832714Y-117575221D01*
X163801913Y-117664835D01*
X163765940Y-117758439D01*
X163725406Y-117854727D01*
X163680922Y-117952389D01*
X163633095Y-118050114D01*
X163582539Y-118146594D01*
X163529861Y-118240521D01*
X163475675Y-118330585D01*
X163420590Y-118415478D01*
X163365213Y-118493889D01*
X163310161Y-118564511D01*
X163256038Y-118626032D01*
X163224299Y-118657422D01*
X163191843Y-118685822D01*
X163158758Y-118711262D01*
X163125126Y-118733774D01*
X163091039Y-118753385D01*
X163056578Y-118770128D01*
X163021835Y-118784034D01*
X162986891Y-118795128D01*
X162951834Y-118803447D01*
X162916753Y-118809014D01*
X162881731Y-118811864D01*
X162846855Y-118812026D01*
X162812212Y-118809529D01*
X162777889Y-118804403D01*
X162743970Y-118796681D01*
X162710545Y-118786391D01*
X162677697Y-118773563D01*
X162645516Y-118758226D01*
X162614082Y-118740414D01*
X162583489Y-118720153D01*
X162553816Y-118697475D01*
X162525155Y-118672411D01*
X162497590Y-118644987D01*
X162471206Y-118615240D01*
X162446092Y-118583193D01*
X162422334Y-118548880D01*
X162400017Y-118512332D01*
X162379227Y-118473575D01*
X162360053Y-118432644D01*
X162342578Y-118389566D01*
X162326889Y-118344372D01*
X162313074Y-118297091D01*
X162305433Y-118267371D01*
X162298961Y-118237673D01*
X162293680Y-118207769D01*
X162289604Y-118177422D01*
X162286747Y-118146400D01*
X162285127Y-118114471D01*
X162284761Y-118081403D01*
X162285663Y-118046959D01*
X162287850Y-118010910D01*
X162291338Y-117973023D01*
X162296143Y-117933062D01*
X162302281Y-117890798D01*
X162318621Y-117798422D01*
X162340487Y-117694033D01*
X162361434Y-117586339D01*
X162379057Y-117473411D01*
X162393370Y-117355920D01*
X162404391Y-117234543D01*
X162412134Y-117109959D01*
X162416619Y-116982832D01*
X162417858Y-116853841D01*
X162415869Y-116723662D01*
X162410669Y-116592970D01*
X162402271Y-116462437D01*
X162390692Y-116332739D01*
X162375950Y-116204552D01*
X162358061Y-116078548D01*
X162337039Y-115955404D01*
X162312901Y-115835794D01*
X162285664Y-115720391D01*
X162264459Y-115635388D01*
X162246066Y-115560761D01*
X162230469Y-115495706D01*
X162217649Y-115439421D01*
X162212275Y-115414316D01*
X162207591Y-115391103D01*
X162203593Y-115369680D01*
X162200281Y-115349947D01*
X162197650Y-115331805D01*
X162195700Y-115315152D01*
X162194428Y-115299890D01*
X162193834Y-115285914D01*
X162193914Y-115273129D01*
X162194667Y-115261432D01*
X162196088Y-115250722D01*
X162198181Y-115240900D01*
X162200939Y-115231865D01*
X162204361Y-115223516D01*
X162208447Y-115215754D01*
X162213193Y-115208476D01*
X162218597Y-115201586D01*
X162224659Y-115194979D01*
X162231374Y-115188559D01*
X162238742Y-115182222D01*
X162246759Y-115175869D01*
X162255426Y-115169399D01*
X162274698Y-115155709D01*
X162293274Y-115143195D01*
X162313004Y-115132370D01*
X162333846Y-115123219D01*
X162355766Y-115115726D01*
X162378727Y-115109881D01*
X162402689Y-115105669D01*
X162427618Y-115103075D01*
X162453474Y-115102083D01*
X162507825Y-115104861D01*
G37*
G36*
X164748825Y-115272648D02*
G01*
X164759945Y-115273869D01*
X164764803Y-115274938D01*
X164769169Y-115276321D01*
X164788528Y-115282959D01*
X164813028Y-115290370D01*
X164841638Y-115298293D01*
X164873333Y-115306475D01*
X164907085Y-115314655D01*
X164941863Y-115322578D01*
X164976641Y-115329989D01*
X165010392Y-115336626D01*
X165032318Y-115342178D01*
X165052955Y-115348651D01*
X165072418Y-115356201D01*
X165090828Y-115364981D01*
X165108308Y-115375141D01*
X165124974Y-115386836D01*
X165140953Y-115400215D01*
X165156360Y-115415436D01*
X165171317Y-115432647D01*
X165185946Y-115452002D01*
X165200365Y-115473655D01*
X165214696Y-115497757D01*
X165229060Y-115524460D01*
X165243574Y-115553919D01*
X165258362Y-115586283D01*
X165273546Y-115621709D01*
X165427051Y-115983544D01*
X165517819Y-116186178D01*
X165554536Y-116274148D01*
X165585782Y-116355659D01*
X165611792Y-116432545D01*
X165632800Y-116506639D01*
X165649037Y-116579766D01*
X165660736Y-116653763D01*
X165668131Y-116730457D01*
X165671454Y-116811680D01*
X165670940Y-116899263D01*
X165666818Y-116995039D01*
X165659324Y-117100836D01*
X165648690Y-117218486D01*
X165618934Y-117496668D01*
X165585793Y-117768259D01*
X165571555Y-117880267D01*
X165558370Y-117978430D01*
X165545858Y-118064258D01*
X165533646Y-118139260D01*
X165521352Y-118204946D01*
X165508601Y-118262827D01*
X165495013Y-118314411D01*
X165487788Y-118338314D01*
X165480214Y-118361210D01*
X165472242Y-118383285D01*
X165463824Y-118404731D01*
X165445468Y-118446484D01*
X165424765Y-118487984D01*
X165401341Y-118530734D01*
X165374816Y-118576248D01*
X165344816Y-118626032D01*
X165321346Y-118659438D01*
X165292498Y-118693599D01*
X165258926Y-118728112D01*
X165221292Y-118762577D01*
X165180251Y-118796592D01*
X165136464Y-118829757D01*
X165090590Y-118861669D01*
X165043286Y-118891927D01*
X164995212Y-118920128D01*
X164947023Y-118945871D01*
X164899383Y-118968756D01*
X164852945Y-118988382D01*
X164808372Y-119004344D01*
X164766322Y-119016243D01*
X164727449Y-119023678D01*
X164709410Y-119025593D01*
X164692416Y-119026244D01*
X164662979Y-119024378D01*
X164634305Y-119018833D01*
X164606418Y-119009683D01*
X164579343Y-118997012D01*
X164553102Y-118980896D01*
X164527720Y-118961412D01*
X164479633Y-118912657D01*
X164435271Y-118851373D01*
X164394827Y-118778189D01*
X164358495Y-118693729D01*
X164326470Y-118598621D01*
X164298939Y-118493489D01*
X164276100Y-118378963D01*
X164258144Y-118255666D01*
X164245262Y-118124226D01*
X164237648Y-117985269D01*
X164235495Y-117839422D01*
X164238997Y-117687311D01*
X164248344Y-117529562D01*
X164256568Y-117395555D01*
X164260679Y-117271634D01*
X164260679Y-117155559D01*
X164256570Y-117045065D01*
X164248346Y-116937913D01*
X164236011Y-116831852D01*
X164219562Y-116724637D01*
X164199003Y-116614014D01*
X164170826Y-116472044D01*
X164148067Y-116341717D01*
X164138769Y-116280706D01*
X164130881Y-116222345D01*
X164124428Y-116166551D01*
X164119425Y-116113235D01*
X164115890Y-116062314D01*
X164113845Y-116013699D01*
X164113307Y-115967306D01*
X164114296Y-115923046D01*
X164116830Y-115880833D01*
X164120931Y-115840583D01*
X164126614Y-115802207D01*
X164133901Y-115765621D01*
X164142811Y-115730737D01*
X164153361Y-115697469D01*
X164165572Y-115665731D01*
X164179463Y-115635436D01*
X164195052Y-115606499D01*
X164212358Y-115578832D01*
X164231401Y-115552350D01*
X164252201Y-115526968D01*
X164274775Y-115502596D01*
X164299142Y-115479149D01*
X164325323Y-115456543D01*
X164353334Y-115434688D01*
X164383199Y-115413500D01*
X164414932Y-115392894D01*
X164448556Y-115372780D01*
X164484087Y-115353075D01*
X164504875Y-115342996D01*
X164526019Y-115333362D01*
X164547352Y-115324224D01*
X164568721Y-115315639D01*
X164589959Y-115307667D01*
X164610909Y-115300360D01*
X164631409Y-115293776D01*
X164651299Y-115287971D01*
X164670419Y-115283001D01*
X164688605Y-115278923D01*
X164705698Y-115275793D01*
X164721542Y-115273665D01*
X164735969Y-115272599D01*
X164748825Y-115272648D01*
G37*
D11*
X144392744Y-91927293D02*
G75*
G02*
X143803118Y-91927293I-294813J0D01*
G01*
X143803118Y-91927293D02*
G75*
G02*
X144392744Y-91927293I294813J0D01*
G01*
X171771618Y-92151052D02*
G75*
G02*
X171181992Y-92151052I-294813J0D01*
G01*
X171181992Y-92151052D02*
G75*
G02*
X171771618Y-92151052I294813J0D01*
G01*
D10*
G36*
X149241001Y-90628956D02*
G01*
X149246422Y-90629581D01*
X149252067Y-90630592D01*
X149257943Y-90631974D01*
X149264056Y-90633718D01*
X149270416Y-90635811D01*
X149277028Y-90638238D01*
X149302872Y-90647764D01*
X149341742Y-90659494D01*
X149391630Y-90673037D01*
X149450524Y-90688006D01*
X149587300Y-90720667D01*
X149735999Y-90754364D01*
X149794770Y-90768268D01*
X149846898Y-90781084D01*
X149892740Y-90793027D01*
X149932653Y-90804305D01*
X149950497Y-90809762D01*
X149966993Y-90815129D01*
X149982184Y-90820438D01*
X149996116Y-90825711D01*
X150008832Y-90830977D01*
X150020379Y-90836260D01*
X150030799Y-90841589D01*
X150040139Y-90846987D01*
X150048441Y-90852484D01*
X150055749Y-90858104D01*
X150062112Y-90863874D01*
X150067571Y-90869820D01*
X150072172Y-90875968D01*
X150075958Y-90882345D01*
X150078975Y-90888977D01*
X150081266Y-90895892D01*
X150082876Y-90903113D01*
X150083853Y-90910670D01*
X150084238Y-90918585D01*
X150084074Y-90926888D01*
X150083409Y-90935604D01*
X150082286Y-90944761D01*
X150080751Y-90954382D01*
X150078847Y-90964496D01*
X150074139Y-90994380D01*
X150072356Y-91022843D01*
X150073342Y-91049853D01*
X150076946Y-91075383D01*
X150083011Y-91099401D01*
X150091387Y-91121879D01*
X150101914Y-91142789D01*
X150114445Y-91162099D01*
X150128821Y-91179781D01*
X150144891Y-91195806D01*
X150162500Y-91210144D01*
X150181493Y-91222765D01*
X150201719Y-91233640D01*
X150223020Y-91242741D01*
X150245247Y-91250037D01*
X150268242Y-91255501D01*
X150291853Y-91259101D01*
X150315926Y-91260808D01*
X150340306Y-91260593D01*
X150364841Y-91258428D01*
X150389375Y-91254281D01*
X150413755Y-91248125D01*
X150437828Y-91239930D01*
X150461439Y-91229666D01*
X150484435Y-91217305D01*
X150506660Y-91202815D01*
X150527963Y-91186169D01*
X150548188Y-91167337D01*
X150567182Y-91146290D01*
X150584790Y-91122998D01*
X150600860Y-91097432D01*
X150615236Y-91069562D01*
X150625679Y-91047464D01*
X150636245Y-91026791D01*
X150646892Y-91007541D01*
X150657585Y-90989715D01*
X150668281Y-90973309D01*
X150678942Y-90958325D01*
X150689526Y-90944760D01*
X150699997Y-90932613D01*
X150710314Y-90921884D01*
X150720439Y-90912572D01*
X150730330Y-90904674D01*
X150739949Y-90898192D01*
X150749256Y-90893123D01*
X150758211Y-90889467D01*
X150766775Y-90887222D01*
X150774910Y-90886387D01*
X150782573Y-90886963D01*
X150789729Y-90888946D01*
X150796335Y-90892336D01*
X150802353Y-90897134D01*
X150807744Y-90903337D01*
X150812467Y-90910943D01*
X150816483Y-90919954D01*
X150819752Y-90930367D01*
X150822238Y-90942180D01*
X150823895Y-90955396D01*
X150824690Y-90970009D01*
X150824580Y-90986022D01*
X150823527Y-91003432D01*
X150821490Y-91022237D01*
X150818430Y-91042438D01*
X150814309Y-91064033D01*
X150754864Y-91351581D01*
X150713218Y-91563268D01*
X150670535Y-91788434D01*
X150649873Y-91897960D01*
X150629666Y-92001073D01*
X150610366Y-92095500D01*
X150592426Y-92178977D01*
X150576301Y-92249233D01*
X150562444Y-92304002D01*
X150556508Y-92324869D01*
X150551309Y-92341014D01*
X150546904Y-92352154D01*
X150543349Y-92358004D01*
X150539605Y-92360919D01*
X150534656Y-92363436D01*
X150528586Y-92365549D01*
X150521490Y-92367248D01*
X150513453Y-92368527D01*
X150504564Y-92369376D01*
X150494916Y-92369787D01*
X150484595Y-92369754D01*
X150473691Y-92369267D01*
X150462292Y-92368317D01*
X150450489Y-92366899D01*
X150438369Y-92365002D01*
X150426023Y-92362618D01*
X150413540Y-92359742D01*
X150401007Y-92356364D01*
X150388515Y-92352474D01*
X150369067Y-92345586D01*
X150352161Y-92339362D01*
X150337750Y-92333689D01*
X150331466Y-92331024D01*
X150325786Y-92328454D01*
X150320706Y-92325965D01*
X150316220Y-92323542D01*
X150312321Y-92321173D01*
X150309002Y-92318841D01*
X150306260Y-92316534D01*
X150304086Y-92314238D01*
X150302476Y-92311937D01*
X150301421Y-92309617D01*
X150300919Y-92307266D01*
X150300958Y-92304868D01*
X150301539Y-92302410D01*
X150302651Y-92299876D01*
X150304291Y-92297253D01*
X150306451Y-92294526D01*
X150309126Y-92291683D01*
X150312307Y-92288708D01*
X150315992Y-92285587D01*
X150320173Y-92282306D01*
X150329998Y-92275208D01*
X150341736Y-92267298D01*
X150355336Y-92258466D01*
X150365429Y-92252678D01*
X150374965Y-92245728D01*
X150383945Y-92237683D01*
X150392360Y-92228614D01*
X150400209Y-92218590D01*
X150407486Y-92207677D01*
X150414189Y-92195948D01*
X150420312Y-92183468D01*
X150425851Y-92170310D01*
X150430804Y-92156539D01*
X150438932Y-92127436D01*
X150444661Y-92096715D01*
X150447960Y-92064925D01*
X150448797Y-92032615D01*
X150447140Y-92000338D01*
X150442955Y-91968644D01*
X150436209Y-91938085D01*
X150431867Y-91923403D01*
X150426873Y-91909210D01*
X150421222Y-91895577D01*
X150414911Y-91882572D01*
X150407937Y-91870263D01*
X150400292Y-91858718D01*
X150391977Y-91848009D01*
X150382985Y-91838204D01*
X150374717Y-91830671D01*
X150365507Y-91823624D01*
X150355419Y-91817062D01*
X150344514Y-91810988D01*
X150332857Y-91805398D01*
X150320508Y-91800294D01*
X150293990Y-91791546D01*
X150265464Y-91784742D01*
X150235431Y-91779882D01*
X150204393Y-91776965D01*
X150172854Y-91775993D01*
X150141313Y-91776965D01*
X150110275Y-91779882D01*
X150080242Y-91784742D01*
X150051715Y-91791546D01*
X150025199Y-91800294D01*
X150012850Y-91805398D01*
X150001193Y-91810988D01*
X149990288Y-91817062D01*
X149980199Y-91823624D01*
X149970988Y-91830671D01*
X149962721Y-91838204D01*
X149955596Y-91845838D01*
X149948756Y-91854177D01*
X149942223Y-91863148D01*
X149936023Y-91872678D01*
X149930178Y-91882695D01*
X149924715Y-91893124D01*
X149919656Y-91903893D01*
X149915027Y-91914929D01*
X149910851Y-91926160D01*
X149907153Y-91937512D01*
X149903958Y-91948913D01*
X149901288Y-91960291D01*
X149899170Y-91971570D01*
X149897627Y-91982681D01*
X149896684Y-91993546D01*
X149896363Y-92004098D01*
X149896282Y-92009249D01*
X149896044Y-92014328D01*
X149895649Y-92019331D01*
X149895099Y-92024251D01*
X149894401Y-92029082D01*
X149893558Y-92033818D01*
X149892568Y-92038452D01*
X149891439Y-92042979D01*
X149890172Y-92047392D01*
X149888769Y-92051686D01*
X149887236Y-92055855D01*
X149885575Y-92059891D01*
X149883787Y-92063791D01*
X149881876Y-92067547D01*
X149879847Y-92071153D01*
X149877700Y-92074602D01*
X149875441Y-92077890D01*
X149873071Y-92081009D01*
X149870594Y-92083955D01*
X149868012Y-92086720D01*
X149865329Y-92089299D01*
X149862549Y-92091686D01*
X149859673Y-92093873D01*
X149856704Y-92095857D01*
X149853648Y-92097630D01*
X149850505Y-92099185D01*
X149847277Y-92100519D01*
X149843971Y-92101625D01*
X149840587Y-92102494D01*
X149837130Y-92103123D01*
X149833602Y-92103505D01*
X149830006Y-92103633D01*
X149814987Y-92099947D01*
X149787615Y-92089441D01*
X149702389Y-92051272D01*
X149587484Y-91995737D01*
X149456054Y-91929444D01*
X149321255Y-91859004D01*
X149196240Y-91791027D01*
X149094166Y-91732121D01*
X149055843Y-91708136D01*
X149028186Y-91688899D01*
X149026942Y-91682664D01*
X149027300Y-91666498D01*
X149032506Y-91607161D01*
X149058600Y-91399967D01*
X149101283Y-91111900D01*
X149155371Y-90787542D01*
X149159593Y-90760957D01*
X149164001Y-90737127D01*
X149166293Y-90726214D01*
X149168652Y-90715953D01*
X149171086Y-90706331D01*
X149173602Y-90697338D01*
X149176208Y-90688961D01*
X149178910Y-90681186D01*
X149181715Y-90674003D01*
X149184630Y-90667399D01*
X149187662Y-90661363D01*
X149190820Y-90655881D01*
X149194109Y-90650941D01*
X149197536Y-90646534D01*
X149201110Y-90642642D01*
X149204835Y-90639260D01*
X149208722Y-90636370D01*
X149212775Y-90633961D01*
X149217004Y-90632023D01*
X149221413Y-90630542D01*
X149226009Y-90629508D01*
X149230801Y-90628906D01*
X149235797Y-90628727D01*
X149241001Y-90628956D01*
G37*
G36*
X150378589Y-115947653D02*
G01*
X150396850Y-115949454D01*
X150414322Y-115952706D01*
X150431039Y-115957421D01*
X150447036Y-115963605D01*
X150462343Y-115971265D01*
X150476993Y-115980407D01*
X150491024Y-115991039D01*
X150504463Y-116003168D01*
X150517347Y-116016800D01*
X150529707Y-116031943D01*
X150541580Y-116048605D01*
X150552993Y-116066791D01*
X150563984Y-116086508D01*
X150574583Y-116107765D01*
X150584827Y-116130566D01*
X150594745Y-116154923D01*
X150604373Y-116180838D01*
X150613743Y-116208321D01*
X150629761Y-116257679D01*
X150642697Y-116303546D01*
X150652290Y-116346791D01*
X150658287Y-116388295D01*
X150660428Y-116428932D01*
X150658457Y-116469579D01*
X150652120Y-116511107D01*
X150641155Y-116554395D01*
X150625307Y-116600315D01*
X150604320Y-116649746D01*
X150577936Y-116703562D01*
X150545898Y-116762637D01*
X150507950Y-116827849D01*
X150463835Y-116900072D01*
X150356071Y-117069049D01*
X150221733Y-117277547D01*
X150165573Y-117367308D01*
X150116047Y-117449039D01*
X150072626Y-117523963D01*
X150034776Y-117593294D01*
X150001970Y-117658259D01*
X149973678Y-117720073D01*
X149949369Y-117779962D01*
X149928514Y-117839143D01*
X149910581Y-117898840D01*
X149895041Y-117960269D01*
X149881365Y-118024655D01*
X149869020Y-118093217D01*
X149857480Y-118167175D01*
X149846213Y-118247751D01*
X149834440Y-118340685D01*
X149821682Y-118426376D01*
X149807846Y-118505032D01*
X149800497Y-118541788D01*
X149792846Y-118576862D01*
X149784883Y-118610282D01*
X149776594Y-118642074D01*
X149767969Y-118672266D01*
X149758999Y-118700879D01*
X149749672Y-118727944D01*
X149739975Y-118753483D01*
X149729900Y-118777526D01*
X149719434Y-118800097D01*
X149708566Y-118821223D01*
X149697286Y-118840927D01*
X149685583Y-118859241D01*
X149673444Y-118876185D01*
X149660860Y-118891790D01*
X149647819Y-118906080D01*
X149634310Y-118919079D01*
X149620323Y-118930816D01*
X149605846Y-118941317D01*
X149590868Y-118950606D01*
X149575377Y-118958713D01*
X149559366Y-118965660D01*
X149542817Y-118971474D01*
X149525725Y-118976182D01*
X149508075Y-118979811D01*
X149489861Y-118982384D01*
X149442984Y-118986984D01*
X149398824Y-118988338D01*
X149377685Y-118987750D01*
X149357135Y-118986287D01*
X149337144Y-118983935D01*
X149317681Y-118980673D01*
X149298716Y-118976477D01*
X149280217Y-118971329D01*
X149262157Y-118965212D01*
X149244504Y-118958100D01*
X149227230Y-118949977D01*
X149210302Y-118940823D01*
X149193691Y-118930617D01*
X149177367Y-118919338D01*
X149161299Y-118906967D01*
X149145461Y-118893485D01*
X149129818Y-118878869D01*
X149114341Y-118863101D01*
X149083768Y-118828028D01*
X149053500Y-118788104D01*
X149023297Y-118743169D01*
X148992916Y-118693063D01*
X148962118Y-118637623D01*
X148930660Y-118576692D01*
X148888952Y-118492693D01*
X148852183Y-118413012D01*
X148820282Y-118337092D01*
X148793173Y-118264368D01*
X148770787Y-118194279D01*
X148753051Y-118126260D01*
X148739893Y-118059753D01*
X148731240Y-117994193D01*
X148727020Y-117929017D01*
X148727160Y-117863665D01*
X148731589Y-117797573D01*
X148740234Y-117730182D01*
X148753023Y-117660927D01*
X148769885Y-117589248D01*
X148790744Y-117514580D01*
X148815531Y-117436363D01*
X148855457Y-117324602D01*
X148899286Y-117217384D01*
X148947196Y-117114482D01*
X148999362Y-117015682D01*
X149055959Y-116920771D01*
X149117168Y-116829529D01*
X149183162Y-116741740D01*
X149254120Y-116657189D01*
X149330216Y-116575656D01*
X149411630Y-116496926D01*
X149498537Y-116420781D01*
X149591111Y-116347007D01*
X149689536Y-116275385D01*
X149793982Y-116205697D01*
X149904627Y-116137729D01*
X150021648Y-116071261D01*
X150085941Y-116036963D01*
X150116239Y-116021856D01*
X150145354Y-116008119D01*
X150173317Y-115995758D01*
X150200162Y-115984781D01*
X150225917Y-115975197D01*
X150250622Y-115967011D01*
X150274306Y-115960230D01*
X150297004Y-115954862D01*
X150318748Y-115950914D01*
X150339570Y-115948391D01*
X150359508Y-115947302D01*
X150378589Y-115947653D01*
G37*
G36*
X152100851Y-115641021D02*
G01*
X152110769Y-115641940D01*
X152120308Y-115643425D01*
X152129538Y-115645472D01*
X152138529Y-115648077D01*
X152147353Y-115651236D01*
X152156083Y-115654946D01*
X152164788Y-115659200D01*
X152173539Y-115663999D01*
X152182412Y-115669335D01*
X152191471Y-115675206D01*
X152210447Y-115688530D01*
X152231036Y-115703944D01*
X152245237Y-115717480D01*
X152258038Y-115734359D01*
X152279488Y-115777655D01*
X152295495Y-115832839D01*
X152306161Y-115898910D01*
X152311592Y-115974876D01*
X152311890Y-116059741D01*
X152307161Y-116152506D01*
X152297511Y-116252179D01*
X152283039Y-116357762D01*
X152263855Y-116468260D01*
X152240061Y-116582679D01*
X152211762Y-116700019D01*
X152179063Y-116819288D01*
X152142066Y-116939486D01*
X152100878Y-117059621D01*
X152055600Y-117178697D01*
X152041270Y-117221730D01*
X152029099Y-117274193D01*
X152019065Y-117335257D01*
X152011143Y-117404067D01*
X152005308Y-117479786D01*
X152001538Y-117561567D01*
X152000094Y-117739947D01*
X152006614Y-117932461D01*
X152020908Y-118132364D01*
X152042785Y-118332910D01*
X152072048Y-118527349D01*
X152091165Y-118640545D01*
X152105221Y-118743935D01*
X152110297Y-118792061D01*
X152114042Y-118837866D01*
X152116433Y-118881389D01*
X152117449Y-118922679D01*
X152117067Y-118961776D01*
X152115267Y-118998723D01*
X152112024Y-119033566D01*
X152107320Y-119066346D01*
X152101127Y-119097103D01*
X152093429Y-119125886D01*
X152084200Y-119152735D01*
X152073418Y-119177694D01*
X152061064Y-119200806D01*
X152047113Y-119222113D01*
X152031544Y-119241661D01*
X152014335Y-119259491D01*
X151995462Y-119275645D01*
X151974904Y-119290169D01*
X151952641Y-119303105D01*
X151928651Y-119314495D01*
X151902908Y-119324385D01*
X151875393Y-119332816D01*
X151846083Y-119339831D01*
X151814956Y-119345473D01*
X151781990Y-119349787D01*
X151747162Y-119352815D01*
X151710453Y-119354600D01*
X151671837Y-119355187D01*
X151640847Y-119354629D01*
X151609593Y-119352975D01*
X151546514Y-119346501D01*
X151483049Y-119335995D01*
X151419649Y-119321691D01*
X151356761Y-119303822D01*
X151294840Y-119282618D01*
X151234331Y-119258316D01*
X151175684Y-119231146D01*
X151119350Y-119201342D01*
X151065780Y-119169138D01*
X151015421Y-119134766D01*
X150968724Y-119098457D01*
X150926140Y-119060447D01*
X150906531Y-119040874D01*
X150888118Y-119020965D01*
X150870955Y-119000747D01*
X150855106Y-118980249D01*
X150840619Y-118959498D01*
X150827555Y-118938527D01*
X150802865Y-118887627D01*
X150778320Y-118826342D01*
X150754193Y-118756113D01*
X150730756Y-118678371D01*
X150708283Y-118594561D01*
X150687047Y-118506117D01*
X150667320Y-118414476D01*
X150649378Y-118321077D01*
X150633490Y-118227358D01*
X150619931Y-118134752D01*
X150608975Y-118044701D01*
X150600893Y-117958643D01*
X150595960Y-117878011D01*
X150594447Y-117804247D01*
X150596629Y-117738786D01*
X150602778Y-117683069D01*
X150611645Y-117632302D01*
X150625393Y-117571964D01*
X150643252Y-117504303D01*
X150664454Y-117431564D01*
X150688226Y-117356002D01*
X150713796Y-117279859D01*
X150740393Y-117205392D01*
X150767249Y-117134839D01*
X150819417Y-116989728D01*
X150872098Y-116837420D01*
X150896223Y-116764028D01*
X150917586Y-116695393D01*
X150935222Y-116633696D01*
X150948167Y-116581120D01*
X150956874Y-116552449D01*
X150967522Y-116523030D01*
X150994305Y-116462296D01*
X151027852Y-116399620D01*
X151067493Y-116335700D01*
X151112561Y-116271233D01*
X151162395Y-116206917D01*
X151216323Y-116143455D01*
X151273681Y-116081541D01*
X151333801Y-116021877D01*
X151396016Y-115965159D01*
X151459661Y-115912088D01*
X151524070Y-115863361D01*
X151588576Y-115819678D01*
X151652508Y-115781737D01*
X151715207Y-115750234D01*
X151745883Y-115737119D01*
X151776001Y-115725874D01*
X151832247Y-115706594D01*
X151882124Y-115689853D01*
X151926206Y-115675616D01*
X151965056Y-115663855D01*
X151982700Y-115658891D01*
X151999251Y-115654533D01*
X152014779Y-115650778D01*
X152029356Y-115647622D01*
X152043056Y-115645059D01*
X152055945Y-115643086D01*
X152068098Y-115641701D01*
X152079587Y-115640898D01*
X152090481Y-115640672D01*
X152100851Y-115641021D01*
G37*
G36*
X165145662Y-80095277D02*
G01*
X165218606Y-80100763D01*
X165287693Y-80109050D01*
X165352681Y-80120149D01*
X165413329Y-80134067D01*
X165469390Y-80150811D01*
X165520624Y-80170391D01*
X165566789Y-80192813D01*
X165644896Y-80240554D01*
X165676458Y-80265215D01*
X165703046Y-80290383D01*
X165724676Y-80316048D01*
X165741364Y-80342191D01*
X165753129Y-80368799D01*
X165759984Y-80395861D01*
X165761948Y-80423359D01*
X165759034Y-80451280D01*
X165751261Y-80479610D01*
X165738644Y-80508336D01*
X165721199Y-80537441D01*
X165698941Y-80566915D01*
X165671889Y-80596739D01*
X165640057Y-80626903D01*
X165562122Y-80688187D01*
X165465264Y-80750653D01*
X165349614Y-80814189D01*
X165215300Y-80878681D01*
X165062454Y-80944016D01*
X164891203Y-81010079D01*
X164701678Y-81076757D01*
X164494009Y-81143939D01*
X163830066Y-81349308D01*
X163262420Y-81528173D01*
X162781091Y-81684097D01*
X162376099Y-81820646D01*
X162037464Y-81941384D01*
X161755207Y-82049874D01*
X161519349Y-82149680D01*
X161415699Y-82197440D01*
X161319909Y-82244366D01*
X161212455Y-82298379D01*
X161111418Y-82347791D01*
X161019065Y-82391631D01*
X160937662Y-82428923D01*
X160869479Y-82458701D01*
X160841054Y-82470466D01*
X160816784Y-82479988D01*
X160796953Y-82487144D01*
X160781844Y-82491815D01*
X160771742Y-82493876D01*
X160768656Y-82493890D01*
X160766929Y-82493207D01*
X160765632Y-82486342D01*
X160769836Y-82474245D01*
X160793553Y-82435609D01*
X160835689Y-82379783D01*
X160893856Y-82309255D01*
X161048722Y-82134041D01*
X161239034Y-81929860D01*
X161445678Y-81716606D01*
X161649536Y-81514175D01*
X161831490Y-81342459D01*
X161908279Y-81274338D01*
X161972424Y-81221356D01*
X162092809Y-81131611D01*
X162217495Y-81044888D01*
X162346377Y-80961227D01*
X162479350Y-80880668D01*
X162616309Y-80803252D01*
X162757147Y-80729019D01*
X162901759Y-80658011D01*
X163050042Y-80590267D01*
X163201888Y-80525828D01*
X163357194Y-80464735D01*
X163515853Y-80407026D01*
X163677759Y-80352745D01*
X163842810Y-80301931D01*
X164010897Y-80254624D01*
X164181917Y-80210866D01*
X164355764Y-80170695D01*
X164452474Y-80151321D01*
X164547514Y-80134676D01*
X164640642Y-80120769D01*
X164731617Y-80109608D01*
X164820193Y-80101201D01*
X164906130Y-80095557D01*
X164989181Y-80092683D01*
X165069107Y-80092586D01*
X165145662Y-80095277D01*
G37*
D11*
X176082395Y-98085538D02*
G75*
G02*
X175492769Y-98085538I-294813J0D01*
G01*
X175492769Y-98085538D02*
G75*
G02*
X176082395Y-98085538I294813J0D01*
G01*
D10*
G36*
X151084577Y-80555357D02*
G01*
X151313859Y-80565261D01*
X151535169Y-80581192D01*
X151734577Y-80602696D01*
X151821713Y-80615395D01*
X151898149Y-80629318D01*
X152156558Y-80689292D01*
X152446462Y-80766957D01*
X152755287Y-80858232D01*
X153070464Y-80959032D01*
X153379419Y-81065275D01*
X153669582Y-81172880D01*
X153928380Y-81277762D01*
X154143243Y-81375840D01*
X154285442Y-81445842D01*
X154419734Y-81514905D01*
X154546248Y-81583126D01*
X154665117Y-81650602D01*
X154776469Y-81717430D01*
X154880434Y-81783705D01*
X154977141Y-81849529D01*
X155066719Y-81914994D01*
X155149298Y-81980201D01*
X155225009Y-82045248D01*
X155293981Y-82110228D01*
X155356342Y-82175240D01*
X155412223Y-82240383D01*
X155461753Y-82305751D01*
X155505063Y-82371446D01*
X155542280Y-82437560D01*
X155570200Y-82492815D01*
X155593777Y-82542626D01*
X155612948Y-82587252D01*
X155620861Y-82607703D01*
X155627646Y-82626956D01*
X155633299Y-82645040D01*
X155637810Y-82661992D01*
X155641170Y-82677842D01*
X155643372Y-82692623D01*
X155644407Y-82706365D01*
X155644269Y-82719105D01*
X155642946Y-82730871D01*
X155640434Y-82741699D01*
X155636724Y-82751619D01*
X155631805Y-82760664D01*
X155625671Y-82768868D01*
X155618316Y-82776260D01*
X155609728Y-82782875D01*
X155599901Y-82788745D01*
X155588826Y-82793902D01*
X155576497Y-82798379D01*
X155562903Y-82802208D01*
X155548037Y-82805421D01*
X155531892Y-82808050D01*
X155514459Y-82810130D01*
X155495730Y-82811691D01*
X155475697Y-82812764D01*
X155431685Y-82813586D01*
X155399520Y-82811866D01*
X155362811Y-82806566D01*
X155321031Y-82797474D01*
X155273654Y-82784381D01*
X155160002Y-82745349D01*
X155017643Y-82687782D01*
X154842363Y-82609998D01*
X154629952Y-82510312D01*
X154376196Y-82387036D01*
X154076885Y-82238487D01*
X153684185Y-82045226D01*
X153338658Y-81880606D01*
X153026313Y-81739056D01*
X152733147Y-81615003D01*
X152445165Y-81502874D01*
X152148371Y-81397095D01*
X151828766Y-81292094D01*
X151472355Y-81182297D01*
X151349085Y-81144138D01*
X151226753Y-81104610D01*
X151106432Y-81064159D01*
X150989189Y-81023229D01*
X150876092Y-80982267D01*
X150768213Y-80941718D01*
X150666619Y-80902028D01*
X150572381Y-80863643D01*
X150486567Y-80827007D01*
X150410245Y-80792566D01*
X150344487Y-80760765D01*
X150290361Y-80732051D01*
X150248936Y-80706868D01*
X150233321Y-80695741D01*
X150221282Y-80685663D01*
X150212953Y-80676692D01*
X150208467Y-80668881D01*
X150207959Y-80662287D01*
X150211562Y-80656967D01*
X150216277Y-80651785D01*
X150222070Y-80646620D01*
X150228852Y-80641488D01*
X150236532Y-80636403D01*
X150245022Y-80631384D01*
X150254234Y-80626445D01*
X150264077Y-80621604D01*
X150274463Y-80616876D01*
X150285302Y-80612278D01*
X150296507Y-80607825D01*
X150319652Y-80599422D01*
X150343186Y-80591797D01*
X150366395Y-80585079D01*
X150420474Y-80574701D01*
X150488235Y-80566341D01*
X150657833Y-80555444D01*
X150861259Y-80551933D01*
X151084577Y-80555357D01*
G37*
G36*
X166421044Y-90372226D02*
G01*
X166427347Y-90374227D01*
X166433381Y-90377565D01*
X166444772Y-90388622D01*
X166455466Y-90406128D01*
X166465714Y-90430808D01*
X166475767Y-90463396D01*
X166485878Y-90504617D01*
X166496297Y-90555204D01*
X166507274Y-90615884D01*
X166531910Y-90770437D01*
X166561795Y-90974110D01*
X166579647Y-91103758D01*
X166595751Y-91225371D01*
X166621931Y-91433084D01*
X166644741Y-91626626D01*
X166594801Y-91655527D01*
X166494055Y-91707500D01*
X166210654Y-91846435D01*
X166063250Y-91916293D01*
X165935547Y-91975003D01*
X165845169Y-92014014D01*
X165819486Y-92023459D01*
X165812484Y-92025199D01*
X165809743Y-92024771D01*
X165783476Y-91966018D01*
X165759975Y-91913572D01*
X165732327Y-91853350D01*
X165721201Y-91828833D01*
X165710466Y-91807037D01*
X165699861Y-91787834D01*
X165689124Y-91771093D01*
X165683627Y-91763606D01*
X165678000Y-91756686D01*
X165672211Y-91750315D01*
X165666227Y-91744481D01*
X165660018Y-91739164D01*
X165653548Y-91734350D01*
X165646787Y-91730021D01*
X165639702Y-91726164D01*
X165632261Y-91722759D01*
X165624431Y-91719791D01*
X165616179Y-91717245D01*
X165607473Y-91715104D01*
X165598282Y-91713352D01*
X165588573Y-91711971D01*
X165567469Y-91710264D01*
X165543903Y-91709855D01*
X165517615Y-91710610D01*
X165488345Y-91712404D01*
X165455836Y-91715104D01*
X165422551Y-91718254D01*
X165393032Y-91721639D01*
X165367029Y-91725493D01*
X165344290Y-91730052D01*
X165334067Y-91732668D01*
X165324564Y-91735550D01*
X165315753Y-91738725D01*
X165307601Y-91742223D01*
X165300077Y-91746074D01*
X165293149Y-91750306D01*
X165286785Y-91754949D01*
X165280956Y-91760033D01*
X165275630Y-91765586D01*
X165270773Y-91771638D01*
X165266356Y-91778220D01*
X165262348Y-91785359D01*
X165258715Y-91793086D01*
X165255428Y-91801428D01*
X165252455Y-91810417D01*
X165249764Y-91820082D01*
X165245106Y-91841554D01*
X165241201Y-91866081D01*
X165237797Y-91893896D01*
X165234645Y-91925235D01*
X165232049Y-91948564D01*
X165230476Y-91970866D01*
X165229905Y-91992147D01*
X165230324Y-92012415D01*
X165230899Y-92022172D01*
X165231714Y-92031680D01*
X165232769Y-92040937D01*
X165234061Y-92049946D01*
X165235588Y-92058709D01*
X165237346Y-92067226D01*
X165239338Y-92075498D01*
X165241556Y-92083525D01*
X165244002Y-92091309D01*
X165246674Y-92098852D01*
X165249567Y-92106153D01*
X165252681Y-92113214D01*
X165256013Y-92120037D01*
X165259563Y-92126623D01*
X165263327Y-92132971D01*
X165267305Y-92139083D01*
X165271492Y-92144960D01*
X165275888Y-92150603D01*
X165280491Y-92156013D01*
X165285298Y-92161190D01*
X165290307Y-92166139D01*
X165295518Y-92170856D01*
X165300926Y-92175344D01*
X165306532Y-92179605D01*
X165321045Y-92190446D01*
X165333467Y-92200223D01*
X165343785Y-92209047D01*
X165348149Y-92213133D01*
X165351980Y-92217019D01*
X165355276Y-92220719D01*
X165358035Y-92224246D01*
X165360257Y-92227612D01*
X165361938Y-92230832D01*
X165363076Y-92233919D01*
X165363668Y-92236884D01*
X165363715Y-92239743D01*
X165363212Y-92242508D01*
X165362158Y-92245190D01*
X165360552Y-92247807D01*
X165358391Y-92250367D01*
X165355673Y-92252886D01*
X165352396Y-92255377D01*
X165348558Y-92257853D01*
X165344158Y-92260327D01*
X165339192Y-92262812D01*
X165327558Y-92267867D01*
X165313638Y-92273127D01*
X165297419Y-92278692D01*
X165278882Y-92284672D01*
X165266454Y-92288623D01*
X165254106Y-92292178D01*
X165241922Y-92295328D01*
X165229978Y-92298064D01*
X165218360Y-92300380D01*
X165207147Y-92302265D01*
X165196420Y-92303714D01*
X165186258Y-92304717D01*
X165176746Y-92305266D01*
X165167963Y-92305355D01*
X165159990Y-92304972D01*
X165152908Y-92304112D01*
X165149725Y-92303500D01*
X165146796Y-92302766D01*
X165144132Y-92301909D01*
X165141739Y-92300927D01*
X165139630Y-92299818D01*
X165137816Y-92298584D01*
X165136304Y-92297223D01*
X165135108Y-92295732D01*
X165127259Y-92277655D01*
X165114566Y-92234061D01*
X165077563Y-92084390D01*
X164977508Y-91633539D01*
X164881602Y-91168172D01*
X164849784Y-91000357D01*
X164836500Y-90913284D01*
X164836913Y-90905408D01*
X164838126Y-90898359D01*
X164840094Y-90892122D01*
X164842774Y-90886683D01*
X164846122Y-90882025D01*
X164850096Y-90878134D01*
X164854649Y-90874992D01*
X164859742Y-90872589D01*
X164865327Y-90870905D01*
X164871365Y-90869927D01*
X164877809Y-90869641D01*
X164884615Y-90870028D01*
X164891742Y-90871076D01*
X164899145Y-90872770D01*
X164906782Y-90875094D01*
X164914608Y-90878032D01*
X164922579Y-90881569D01*
X164930652Y-90885691D01*
X164938785Y-90890381D01*
X164946932Y-90895625D01*
X164955052Y-90901409D01*
X164963100Y-90907715D01*
X164971031Y-90914529D01*
X164978805Y-90921838D01*
X164986375Y-90929624D01*
X164993700Y-90937873D01*
X165000735Y-90946568D01*
X165007436Y-90955697D01*
X165013761Y-90965242D01*
X165019667Y-90975190D01*
X165025107Y-90985525D01*
X165030041Y-90996231D01*
X165045139Y-91026166D01*
X165061395Y-91053754D01*
X165078801Y-91078975D01*
X165087933Y-91090693D01*
X165097349Y-91101816D01*
X165107050Y-91112337D01*
X165117032Y-91122258D01*
X165127296Y-91131575D01*
X165137841Y-91140286D01*
X165148664Y-91148390D01*
X165159767Y-91155885D01*
X165171146Y-91162767D01*
X165182803Y-91169036D01*
X165194733Y-91174689D01*
X165206940Y-91179726D01*
X165219420Y-91184143D01*
X165232171Y-91187937D01*
X165245194Y-91191107D01*
X165258488Y-91193653D01*
X165272050Y-91195570D01*
X165285882Y-91196859D01*
X165299980Y-91197513D01*
X165314344Y-91197535D01*
X165328974Y-91196922D01*
X165343869Y-91195670D01*
X165359026Y-91193779D01*
X165374447Y-91191244D01*
X165406068Y-91184243D01*
X165421376Y-91180135D01*
X165436180Y-91175094D01*
X165450466Y-91169160D01*
X165464217Y-91162372D01*
X165477419Y-91154771D01*
X165490051Y-91146394D01*
X165502103Y-91137283D01*
X165513553Y-91127476D01*
X165524389Y-91117013D01*
X165534593Y-91105934D01*
X165544148Y-91094277D01*
X165553040Y-91082083D01*
X165561251Y-91069391D01*
X165568765Y-91056239D01*
X165575567Y-91042669D01*
X165581640Y-91028718D01*
X165586967Y-91014427D01*
X165591533Y-90999837D01*
X165595321Y-90984985D01*
X165598315Y-90969910D01*
X165600500Y-90954653D01*
X165601858Y-90939254D01*
X165602374Y-90923752D01*
X165602031Y-90908186D01*
X165600813Y-90892595D01*
X165598704Y-90877020D01*
X165595687Y-90861499D01*
X165591748Y-90846073D01*
X165586870Y-90830780D01*
X165581035Y-90815660D01*
X165574228Y-90800753D01*
X165566433Y-90786098D01*
X165558187Y-90770189D01*
X165552306Y-90755511D01*
X165549081Y-90741870D01*
X165548557Y-90735378D01*
X165548807Y-90729072D01*
X165549865Y-90722927D01*
X165551771Y-90716922D01*
X165554559Y-90711029D01*
X165558267Y-90705224D01*
X165562931Y-90699485D01*
X165568587Y-90693787D01*
X165583022Y-90682414D01*
X165601862Y-90670912D01*
X165625402Y-90659086D01*
X165653931Y-90646741D01*
X165687741Y-90633683D01*
X165727126Y-90619718D01*
X165772373Y-90604651D01*
X165881629Y-90570436D01*
X166031366Y-90519458D01*
X166103545Y-90494034D01*
X166171253Y-90469518D01*
X166232480Y-90446555D01*
X166285218Y-90425797D01*
X166327458Y-90407889D01*
X166344014Y-90400208D01*
X166357191Y-90393482D01*
X166375831Y-90383235D01*
X166392520Y-90375792D01*
X166407506Y-90371879D01*
X166421044Y-90372226D01*
G37*
D12*
%TO.C,REF\u002A\u002A*%
X157500000Y-60000000D03*
%TD*%
D13*
%TO.C,R1*%
X154981752Y-122000000D03*
D14*
X160061752Y-122000000D03*
%TD*%
D15*
%TO.C,D1*%
X157316002Y-99016746D03*
D16*
X159856002Y-99016746D03*
%TD*%
M02*
