G04 Layer: BottomAssemblyLayer*
G04 EasyEDA Pro v2.2.45.4, 2026-07-12 19:32:33*
G04 Gerber Generator version 0.3*
G04 Scale: 100 percent, Rotated: No, Reflected: No*
G04 Dimensions in millimeters*
G04 Leading zeros omitted, absolute positions, 4 integers and 5 decimals*
G04 Generated by one-click*
%FSLAX45Y45*%
%MOMM*%
%ADD10C,0.15*%
%ADD11C,0.1*%
%ADD12C,0.6568*%
G75*


G04 Text Start*
G54D10*
G01X274049Y-6292441D02*
G01X218423Y-6292441D01*
G01X274049Y-6292441D02*
G01X274049Y-6273899D01*
G01X271509Y-6266025D01*
G01X266175Y-6260691D01*
G01X260841Y-6258151D01*
G01X252967Y-6255357D01*
G01X239505Y-6255357D01*
G01X231631Y-6258151D01*
G01X226297Y-6260691D01*
G01X220963Y-6266025D01*
G01X218423Y-6273899D01*
G01X218423Y-6292441D01*
G01X239505Y-6227671D02*
G01X239505Y-6195667D01*
G01X244839Y-6195667D01*
G01X250173Y-6198461D01*
G01X252967Y-6201001D01*
G01X255507Y-6206335D01*
G01X255507Y-6214209D01*
G01X252967Y-6219543D01*
G01X247633Y-6224877D01*
G01X239505Y-6227671D01*
G01X234171Y-6227671D01*
G01X226297Y-6224877D01*
G01X220963Y-6219543D01*
G01X218423Y-6214209D01*
G01X218423Y-6206335D01*
G01X220963Y-6201001D01*
G01X226297Y-6195667D01*
G01X255507Y-6167981D02*
G01X218423Y-6151979D01*
G01X255507Y-6135977D02*
G01X218423Y-6151979D01*
G01X274049Y-6108291D02*
G01X271509Y-6105497D01*
G01X274049Y-6102957D01*
G01X276843Y-6105497D01*
G01X274049Y-6108291D01*
G01X255507Y-6105497D02*
G01X218423Y-6105497D01*
G01X247633Y-6043267D02*
G01X252967Y-6048601D01*
G01X255507Y-6053935D01*
G01X255507Y-6061809D01*
G01X252967Y-6067143D01*
G01X247633Y-6072477D01*
G01X239505Y-6075271D01*
G01X234171Y-6075271D01*
G01X226297Y-6072477D01*
G01X220963Y-6067143D01*
G01X218423Y-6061809D01*
G01X218423Y-6053935D01*
G01X220963Y-6048601D01*
G01X226297Y-6043267D01*
G01X239505Y-6015581D02*
G01X239505Y-5983577D01*
G01X244839Y-5983577D01*
G01X250173Y-5986371D01*
G01X252967Y-5988911D01*
G01X255507Y-5994245D01*
G01X255507Y-6002119D01*
G01X252967Y-6007453D01*
G01X247633Y-6012787D01*
G01X239505Y-6015581D01*
G01X234171Y-6015581D01*
G01X226297Y-6012787D01*
G01X220963Y-6007453D01*
G01X218423Y-6002119D01*
G01X218423Y-5994245D01*
G01X220963Y-5988911D01*
G01X226297Y-5983577D01*
G01X199881Y-5955891D02*
G01X199881Y-5908139D01*
G01X274049Y-5880453D02*
G01X218423Y-5880453D01*
G01X274049Y-5880453D02*
G01X274049Y-5856577D01*
G01X271509Y-5848449D01*
G01X268715Y-5845909D01*
G01X263635Y-5843115D01*
G01X258301Y-5843115D01*
G01X252967Y-5845909D01*
G01X250173Y-5848449D01*
G01X247633Y-5856577D01*
G01X247633Y-5880453D02*
G01X247633Y-5856577D01*
G01X244839Y-5848449D01*
G01X242299Y-5845909D01*
G01X236965Y-5843115D01*
G01X229091Y-5843115D01*
G01X223757Y-5845909D01*
G01X220963Y-5848449D01*
G01X218423Y-5856577D01*
G01X218423Y-5880453D01*
G01X255507Y-5783425D02*
G01X218423Y-5783425D01*
G01X247633Y-5783425D02*
G01X252967Y-5788759D01*
G01X255507Y-5794093D01*
G01X255507Y-5801967D01*
G01X252967Y-5807301D01*
G01X247633Y-5812635D01*
G01X239505Y-5815429D01*
G01X234171Y-5815429D01*
G01X226297Y-5812635D01*
G01X220963Y-5807301D01*
G01X218423Y-5801967D01*
G01X218423Y-5794093D01*
G01X220963Y-5788759D01*
G01X226297Y-5783425D01*
G01X274049Y-5747611D02*
G01X229091Y-5747611D01*
G01X220963Y-5745071D01*
G01X218423Y-5739737D01*
G01X218423Y-5734403D01*
G01X255507Y-5755739D02*
G01X255507Y-5737197D01*
G01X274049Y-5698589D02*
G01X229091Y-5698589D01*
G01X220963Y-5696049D01*
G01X218423Y-5690715D01*
G01X218423Y-5685381D01*
G01X255507Y-5706717D02*
G01X255507Y-5688175D01*
G01X239505Y-5657695D02*
G01X239505Y-5625691D01*
G01X244839Y-5625691D01*
G01X250173Y-5628485D01*
G01X252967Y-5631025D01*
G01X255507Y-5636359D01*
G01X255507Y-5644233D01*
G01X252967Y-5649567D01*
G01X247633Y-5654901D01*
G01X239505Y-5657695D01*
G01X234171Y-5657695D01*
G01X226297Y-5654901D01*
G01X220963Y-5649567D01*
G01X218423Y-5644233D01*
G01X218423Y-5636359D01*
G01X220963Y-5631025D01*
G01X226297Y-5625691D01*
G01X255507Y-5598005D02*
G01X218423Y-5598005D01*
G01X239505Y-5598005D02*
G01X247633Y-5595211D01*
G01X252967Y-5589877D01*
G01X255507Y-5584543D01*
G01X255507Y-5576669D01*
G01X255507Y-5546189D02*
G01X218423Y-5530441D01*
G01X255507Y-5514439D02*
G01X218423Y-5530441D01*
G01X207755Y-5535521D01*
G01X202421Y-5540855D01*
G01X199881Y-5546189D01*
G01X199881Y-5548983D01*
G01X948379Y-5977068D02*
G01X892753Y-5977068D01*
G01X948379Y-5977068D02*
G01X948379Y-5953192D01*
G01X945839Y-5945318D01*
G01X943045Y-5942778D01*
G01X937965Y-5939984D01*
G01X932631Y-5939984D01*
G01X927297Y-5942778D01*
G01X924503Y-5945318D01*
G01X921963Y-5953192D01*
G01X921963Y-5977068D02*
G01X921963Y-5953192D01*
G01X919169Y-5945318D01*
G01X916629Y-5942778D01*
G01X911295Y-5939984D01*
G01X903421Y-5939984D01*
G01X898087Y-5942778D01*
G01X895293Y-5945318D01*
G01X892753Y-5953192D01*
G01X892753Y-5977068D01*
G01X948379Y-5893756D02*
G01X892753Y-5893756D01*
G01X948379Y-5912298D02*
G01X948379Y-5874960D01*
G01X937965Y-5847274D02*
G01X940505Y-5841940D01*
G01X948379Y-5833812D01*
G01X892753Y-5833812D01*
G04 Text End*

G04 PolygonModel Start*
G54D11*
G01X1566591Y-4842500D02*
G01X666592Y-4842500D01*
G01X666592Y-4842500D02*
G01X467591Y-5041500D01*
G01X1959591Y-4986500D02*
G01X1566591Y-4842500D01*
G01X467591Y-5041500D02*
G01X467591Y-6769500D01*
G01X467591Y-6769500D02*
G01X666592Y-6968500D01*
G01X1566591Y-6968500D02*
G01X1959591Y-6824500D01*
G01X666592Y-6968500D02*
G01X1566591Y-6968500D01*
G01X1959591Y-4986500D02*
G02X2050442Y-5295885I-68000J-188000D01*
G01X2049592Y-6515500D02*
G02X2049196Y-5296015I793000J610000D01*
G01X2049592Y-6515500D02*
G02X1959480Y-6823573I-158000J-121000D01*

M02*

